<svg width="24" height="24" viewBox="0 0 24 24" fill="none" xmlns="http://www.w3.org/2000/svg">
<path d="M7.50012 20.2501H4.50012C4.30127 20.2501 4.11047 20.1711 3.96985 20.0305C3.82922 19.8898 3.75012 19.6991 3.75012 19.5001V4.50012C3.75012 4.30118 3.82922 4.11047 3.96985 3.96976C4.11047 3.82913 4.30127 3.75012 4.50012 3.75012H7.50012V20.2501Z" fill="white"/>
<path fill-rule="evenodd" clip-rule="evenodd" d="M2.99982 4.50015C2.99982 4.50015 2.99982 3.87883 3.43916 3.43949C3.43916 3.43949 3.8785 3.00015 4.49982 3.00015H19.4998C19.4998 3.00015 20.1211 3.00015 20.5605 3.43949C20.5605 3.43949 20.9998 3.87883 20.9998 4.50015V19.5002C20.9998 19.5002 20.9998 20.1215 20.5605 20.5608C20.5605 20.5608 20.1211 21.0002 19.4998 21.0002H4.49982C4.49982 21.0002 3.87849 21.0002 3.43916 20.5608C3.43916 20.5608 2.99982 20.1215 2.99982 19.5002V4.50015ZM4.49982 4.50015V19.5002H19.4998V4.50015H4.49982Z" fill="white"/>
<path d="M16.9684 15.9727C16.9101 16.0301 16.8315 16.0624 16.7496 16.0625C16.6667 16.0622 16.587 16.03 16.527 15.9727L14.8395 14.2813C14.1288 14.8782 13.215 15.1778 12.2889 15.1174C11.3627 15.057 10.4955 14.6415 9.86832 13.9573C9.24111 13.2732 8.90222 12.3733 8.92236 11.4453C8.94249 10.5174 9.32008 9.63308 9.97638 8.97678C10.6327 8.32048 11.517 7.94289 12.445 7.92275C13.3729 7.90262 14.2728 8.2415 14.9569 8.86872C15.6411 9.49594 16.0567 10.3631 16.117 11.2892C16.1774 12.2154 15.8778 13.1292 15.2809 13.8399L16.9684 15.5274C16.9979 15.5565 17.0214 15.5911 17.0374 15.6293C17.0534 15.6676 17.0616 15.7086 17.0616 15.75C17.0616 15.7915 17.0534 15.8325 17.0374 15.8707C17.0214 15.9089 16.9979 15.9436 16.9684 15.9727ZM12.5309 14.5C13.118 14.5 13.692 14.3259 14.1802 13.9997C14.6684 13.6735 15.049 13.2098 15.2737 12.6674C15.4983 12.1249 15.5571 11.528 15.4426 10.9521C15.328 10.3762 15.0453 9.84724 14.6301 9.43206C14.2149 9.01687 13.6859 8.73412 13.1101 8.61957C12.5342 8.50502 11.9373 8.56382 11.3948 8.78851C10.8523 9.01321 10.3887 9.39372 10.0625 9.88193C9.73625 10.3701 9.56213 10.9441 9.56213 11.5313C9.56317 12.3183 9.87628 13.0728 10.4328 13.6294C10.9893 14.1859 11.7438 14.499 12.5309 14.5Z" fill="white"/>
</svg>
