<svg width="35" height="32" viewBox="0 0 35 32" fill="none" xmlns="http://www.w3.org/2000/svg">
<g clip-path="url(#clip0_100_2209)">
<path d="M20.7745 6.18356H18.6633C18.6633 5.87636 18.6633 5.57615 18.6633 5.27825C18.6633 5.02458 18.6633 4.77091 18.6633 4.51724C18.6633 3.95171 18.2906 3.57469 17.7303 3.57469C13.9037 3.57469 10.0771 3.57469 6.25273 3.57469C5.19016 3.57469 4.1299 3.58633 3.06733 3.57004C2.5835 3.56305 2.13672 3.96567 2.13903 4.50327C2.14829 8.65746 2.14366 12.8116 2.14366 16.9635C2.14366 20.1193 2.1506 23.2774 2.13672 26.4332C2.13672 26.8916 2.49091 27.378 3.11826 27.3734C4.83828 27.3571 6.55599 27.3664 8.27601 27.3664C11.4105 27.3664 14.5449 27.3664 17.6794 27.3664C18.2998 27.3664 18.6656 27.001 18.6656 26.382C18.6656 25.8467 18.6656 25.3091 18.6656 24.7599H20.7792C20.7815 24.818 20.7861 24.8809 20.7861 24.9414C20.7861 26.5705 20.7861 28.1996 20.7861 29.8263C20.7861 30.8876 20.1101 31.7324 19.0846 31.9558C18.9249 31.9907 18.7582 31.9977 18.5938 31.9977C15.582 32 12.5726 31.9977 9.56082 31.9977C7.10695 31.9977 4.6554 31.9977 2.20153 31.9977C0.937562 31.9977 0 31.0598 0 29.7868C0 26.5542 0.00231497 23.3193 0.00231497 20.0867C0.00231497 16.64 0 13.1956 0 9.74895C0 7.23316 0 4.71273 0 2.19462C0 1.13338 0.669026 0.290909 1.69456 0.0535273C1.84734 0.0186182 2.00939 0.00232727 2.16449 0.00232727C6.29671 0 10.4289 0 14.5611 0C15.8992 0 17.2372 0 18.5753 0C19.7004 0 20.5523 0.698182 20.7653 1.80131C20.7861 1.90371 20.7861 2.01309 20.7861 2.11782C20.7861 3.42109 20.7861 4.72669 20.7861 6.02996C20.7861 6.07651 20.7792 6.12305 20.7745 6.18124V6.18356ZM10.4035 28.8884C9.86408 28.8884 9.32469 28.8884 8.7853 28.8884C8.30379 28.8884 7.95423 29.2259 7.95423 29.6797C7.95423 30.1335 8.30379 30.471 8.7853 30.471C9.85713 30.471 10.9313 30.471 12.0031 30.471C12.4823 30.471 12.8434 30.1335 12.8481 29.6867C12.8527 29.2399 12.4846 28.8884 12.0031 28.8884C11.4707 28.8884 10.9359 28.8884 10.4035 28.8884Z" fill="#333333"/>
<path d="M18.3896 11.1849C18.3896 12.0809 18.3896 12.9769 18.3896 13.8729C18.3896 14.1987 18.2646 14.3267 17.9451 14.3244C17.3942 14.3221 16.8455 14.3081 16.2946 14.3081C15.1278 14.3081 13.9611 14.3197 12.7943 14.3244C12.4147 14.3244 12.292 14.201 12.292 13.8147C12.292 12.046 12.292 10.2773 12.292 8.50621C12.292 8.12919 12.4101 8.0105 12.7851 8.0105C14.4912 8.0105 16.1997 8.0105 17.9058 8.0105C18.2785 8.0105 18.3896 8.11988 18.3919 8.49457C18.3919 9.39057 18.3919 10.2866 18.3919 11.1849H18.3896Z" fill="#8E8E8E"/>
<path d="M28.1265 12.0483C28.1219 12.2437 27.9992 12.3368 27.8673 12.4183C27.3047 12.7697 26.7422 13.1188 26.1773 13.4679C25.2398 14.0497 24.3022 14.6292 23.3647 15.211C23.0892 15.3809 22.9017 15.3344 22.7396 15.0481C21.8831 13.5587 21.0289 12.0715 20.1723 10.5821C19.9755 10.2376 20.008 10.0933 20.3413 9.88622C21.8368 8.95764 23.3322 8.02906 24.8254 7.10048C25.0453 6.96317 25.2652 7.01437 25.3949 7.23778C25.9875 8.26644 26.5778 9.29742 27.1705 10.3284C27.4483 10.8125 27.7284 11.2965 28.0039 11.7806C28.0525 11.8644 28.0849 11.9575 28.1242 12.0483H28.1265Z" fill="#8E8E8E"/>
<path d="M24.0665 16.8912C24.9509 16.8586 25.8352 16.8284 26.7218 16.7958C26.9718 16.7865 27.1269 16.9401 27.1269 17.2147C27.1269 18.4412 27.1269 19.67 27.1269 20.8965C27.1269 21.4224 27.1269 21.9461 27.1269 22.472C27.1269 22.7909 26.9973 22.9282 26.6824 22.9282C24.9509 22.9282 23.2193 22.9282 21.49 22.9282C21.1659 22.9282 21.0339 22.7909 21.0339 22.4627C21.0339 20.7941 21.0386 19.1231 21.0293 17.4544C21.0293 17.1402 21.2076 16.9843 21.4807 16.9797C22.3419 16.9634 23.2031 16.9215 24.0665 16.8889C24.0665 16.8889 24.0665 16.8912 24.0665 16.8936V16.8912Z" fill="#8E8E8E"/>
<path d="M15.3431 16.9822C16.2182 16.9822 17.0932 16.9822 17.966 16.9822C18.2577 16.9822 18.3919 17.1195 18.3919 17.4174C18.3919 19.093 18.3919 20.7687 18.3919 22.4443C18.3919 22.798 18.2692 22.9237 17.9174 22.9237C16.3038 22.9237 14.6903 22.9214 13.0745 22.9191C12.9448 22.9191 12.8152 22.933 12.6879 22.926C12.4355 22.9121 12.3059 22.7748 12.292 22.5211C12.292 22.4862 12.292 22.4513 12.292 22.414C12.292 20.7803 12.292 19.1442 12.292 17.5105C12.292 17.0892 12.4031 16.9822 12.8268 16.9822C13.6648 16.9822 14.5051 16.9822 15.3431 16.9822Z" fill="#8E8E8E"/>
<path d="M33.6388 11.6154C32.692 11.5549 31.7452 11.4967 30.7984 11.4315C30.4048 11.4036 30.0159 11.0498 29.9048 10.6379C29.7867 10.205 29.9465 9.72795 30.2914 9.47195C30.5321 9.29042 30.803 9.22525 31.0993 9.2462C32.016 9.30671 32.9351 9.36489 33.8518 9.42075C34.4977 9.46031 34.9028 9.81173 34.9908 10.4261C35.0834 11.0591 34.4815 11.6898 33.8495 11.627C33.78 11.62 33.7083 11.6154 33.6388 11.6107C33.6388 11.6107 33.6388 11.6154 33.6388 11.6177V11.6154Z" fill="#333333"/>
<path d="M29.3378 6.86786C28.8956 6.86786 28.5067 6.6072 28.3354 6.17433C28.171 5.75542 28.2798 5.26669 28.6109 4.96182C29.3308 4.29622 30.0531 3.63062 30.7754 2.96735C31.368 2.42277 32.2523 2.60197 32.5764 3.32808C32.7269 3.66786 32.6482 4.01695 32.3333 4.33811C31.8009 4.87804 31.2638 5.41331 30.7291 5.95091C30.5346 6.1464 30.3401 6.34422 30.1457 6.53971C29.9281 6.75382 29.6711 6.87949 29.3378 6.86786Z" fill="#333333"/>
<path d="M25.907 2.89039C25.907 3.31628 25.9116 3.73984 25.907 4.16574C25.9 4.70101 25.525 5.14784 25.0134 5.23861C24.4786 5.33403 23.9763 5.06406 23.7957 4.57068C23.7471 4.44035 23.7124 4.29606 23.7124 4.15875C23.7077 3.29766 23.7031 2.43657 23.7193 1.57548C23.7309 0.998317 24.1453 0.560789 24.6893 0.497953C25.2032 0.439771 25.7032 0.763262 25.8514 1.27061C25.8908 1.41024 25.9023 1.55919 25.9046 1.70581C25.9116 2.10144 25.907 2.49708 25.907 2.89039Z" fill="#333333"/>
<path d="M10.4033 28.8884C10.9358 28.8884 11.4705 28.8884 12.003 28.8884C12.4868 28.8884 12.8549 29.2398 12.8479 29.6867C12.8433 30.1335 12.4822 30.471 12.003 30.471C10.9311 30.471 9.85701 30.471 8.78518 30.471C8.30598 30.471 7.9541 30.1335 7.9541 29.6797C7.9541 29.2259 8.30366 28.8884 8.78518 28.8884C9.32456 28.8884 9.86395 28.8884 10.4033 28.8884Z" fill="white"/>
</g>
<defs>
<clipPath id="clip0_100_2209">
<rect width="35" height="32" fill="white"/>
</clipPath>
</defs>
</svg>
