<svg width="21" height="20" viewBox="0 0 21 20" fill="none" xmlns="http://www.w3.org/2000/svg">
<path fill-rule="evenodd" clip-rule="evenodd" d="M10.5313 4.83398C10.5313 4.83398 12.6711 4.83398 14.1842 6.34708C14.1842 6.34708 15.6973 7.86018 15.6973 10C15.6973 10 15.6973 12.1399 14.1842 13.653C14.1842 13.653 12.6711 15.1661 10.5313 15.1661C10.5313 15.1661 8.39143 15.1661 6.87833 13.653C6.87833 13.653 5.36523 12.1399 5.36523 10C5.36523 10 5.36523 7.86018 6.87833 6.34708C6.87833 6.34708 8.39143 4.83398 10.5313 4.83398ZM10.5313 6.31C10.5313 6.31 9.00282 6.31 7.92203 7.39078C7.92203 7.39078 6.84125 8.47157 6.84125 10C6.84125 10 6.84125 11.5285 7.92203 12.6093C7.92203 12.6093 9.00282 13.6901 10.5313 13.6901C10.5313 13.6901 12.0597 13.6901 13.1405 12.6093C13.1405 12.6093 14.2213 11.5285 14.2213 10C14.2213 10 14.2213 8.47157 13.1405 7.39078C13.1405 7.39078 12.0597 6.31 10.5313 6.31Z" fill="#717578"/>
<path fill-rule="evenodd" clip-rule="evenodd" d="M16.0404 1.5746L16.3637 3.83721C16.3637 3.83721 16.5332 4.00021 16.6942 4.16761L18.9566 4.49082C19.1813 4.5229 19.3786 4.65652 19.4918 4.85314C19.4918 4.85314 20.1579 6.00982 20.5057 7.29843C20.565 7.51784 20.5198 7.7523 20.3833 7.93401L19.0089 9.76385C19.0089 9.76385 19.0164 10.0323 19.0119 10.2402L20.3833 12.066C20.5196 12.2474 20.5648 12.4815 20.506 12.7007C20.506 12.7007 20.1595 13.9908 19.4914 15.1477C19.3781 15.3439 19.1809 15.4771 18.9566 15.5092L16.6888 15.8332C16.6888 15.8332 16.5062 16.0207 16.3641 16.16L16.0404 18.4254C16.0083 18.65 15.8747 18.8474 15.6781 18.9606C15.6781 18.9606 14.5214 19.6266 13.2328 19.9745C13.0134 20.0337 12.779 19.9886 12.5972 19.8521L10.7765 18.4845C10.7765 18.4845 10.5313 18.4944 10.286 18.4845L8.46526 19.8521C8.28381 19.9884 8.04975 20.0336 7.83059 19.9747C7.83059 19.9747 6.54043 19.6282 5.38358 18.9601C5.18739 18.8468 5.05411 18.6497 5.02207 18.4254L4.69826 16.1588C4.69826 16.1588 4.53325 15.998 4.37249 15.833L2.10585 15.5092C1.88125 15.4771 1.68388 15.3435 1.57066 15.1469C1.57066 15.1469 0.904631 13.9902 0.556762 12.7016C0.497532 12.4822 0.54269 12.2477 0.679178 12.066L2.05363 10.2362C2.05363 10.2362 2.04615 9.9677 2.0506 9.75982L0.679178 7.93401C0.542888 7.75256 0.497652 7.5185 0.556518 7.29934C0.556518 7.29934 0.903047 6.00917 1.57113 4.85233C1.68443 4.65613 1.88157 4.52286 2.10585 4.49082L4.37249 4.16701C4.37249 4.16701 4.53325 4.002 4.69826 3.84124L5.02207 1.5746C5.05415 1.35 5.18777 1.15263 5.38439 1.03941C5.38439 1.03941 6.54108 0.373381 7.82968 0.025512C8.04909 -0.0337184 8.28355 0.01144 8.46526 0.147928L10.286 1.51553C10.286 1.51553 10.5313 1.5056 10.7765 1.51553L12.5972 0.147928C12.7787 0.0116382 13.0127 -0.0335978 13.2319 0.0252677C13.2319 0.0252677 14.5221 0.371796 15.6789 1.03988C15.8751 1.15318 16.0084 1.35032 16.0404 1.5746ZM14.939 4.30179L14.6313 2.14753C14.6313 2.14753 13.9372 1.78315 13.189 1.54945L11.445 2.85946C11.2993 2.9689 11.1182 3.02057 10.9367 3.00452C10.9367 3.00452 10.5313 2.96866 10.1258 3.00452C9.94427 3.02057 9.76324 2.9689 9.61754 2.85946L7.8739 1.54976C7.8739 1.54976 7.1257 1.78421 6.43115 2.14803L6.12347 4.30179C6.09989 4.46682 6.02114 4.619 5.90004 4.73356C5.90004 4.73356 5.5736 5.04235 5.26481 5.36879C5.15025 5.48989 4.99807 5.56864 4.83304 5.59222L2.67878 5.89997C2.67878 5.89997 2.3144 6.59401 2.0807 7.34224L3.39071 9.08629C3.50012 9.23195 3.55179 9.41292 3.53578 9.59439C3.53578 9.59439 3.51239 9.85941 3.53792 10.438C3.54546 10.6088 3.49342 10.777 3.39071 10.9137L2.08101 12.6574C2.08101 12.6574 2.31546 13.4056 2.67928 14.1001L4.83304 14.4078C4.99807 14.4314 5.15025 14.5101 5.26481 14.6312C5.26481 14.6312 5.57361 14.9577 5.90004 15.2664C6.02114 15.381 6.09989 15.5332 6.12347 15.6982L6.43122 17.8525C6.43122 17.8525 7.12527 18.2169 7.87349 18.4506L9.61754 17.1405C9.76324 17.0311 9.94427 16.9794 10.1258 16.9955C10.1258 16.9955 10.5313 17.0313 10.9367 16.9955C11.1182 16.9794 11.2993 17.0311 11.445 17.1405L13.1886 18.4502C13.1886 18.4502 13.9368 18.2158 14.6314 17.852L14.939 15.6982C14.9631 15.5297 15.0447 15.3747 15.17 15.2595C15.17 15.2595 15.3836 15.0629 15.8012 14.6275C15.9154 14.5085 16.0662 14.4311 16.2295 14.4078L18.3837 14.1C18.3837 14.1 18.7481 13.406 18.9818 12.6578L17.6718 10.9137C17.5624 10.7681 17.5107 10.5871 17.5267 10.4056C17.5267 10.4056 17.5501 10.1406 17.5246 9.56205C17.517 9.3912 17.5691 9.22303 17.6718 9.08629L18.9815 7.34265C18.9815 7.34265 18.747 6.59444 18.3832 5.8999L16.2295 5.59222C16.0608 5.56812 15.9057 5.48642 15.7904 5.36098C15.7904 5.36098 15.4976 5.0423 15.1696 4.74026C15.0445 4.62504 14.9631 4.47015 14.939 4.30179Z" fill="#717578"/>
</svg>
