<svg width="24" height="24" viewBox="0 0 24 24" fill="none" xmlns="http://www.w3.org/2000/svg">
<g clip-path="url(#clip0_314_2639)">
<rect width="24" height="24" fill="white"/>
<path d="M16.95 2.65015C15.971 2.65015 15.014 2.94046 14.1999 3.48437C13.3859 4.02828 12.7515 4.80137 12.3768 5.70586C12.0021 6.61036 11.9041 7.60564 12.0951 8.56584C12.2861 9.52605 12.7576 10.4081 13.4498 11.1003C14.1421 11.7926 15.0241 12.264 15.9843 12.455C16.9445 12.646 17.9398 12.548 18.8443 12.1733C19.7488 11.7987 20.5219 11.1642 21.0658 10.3502C21.6097 9.53619 21.9 8.57916 21.9 7.60015C21.8985 6.28777 21.3766 5.02957 20.4486 4.10158C19.5206 3.17359 18.2624 2.6516 16.95 2.65015ZM16.95 7.05015C17.3388 7.04941 17.7152 7.18628 18.0127 7.43652C18.3102 7.68676 18.5096 8.03422 18.5755 8.41735C18.6413 8.80048 18.5695 9.19457 18.3727 9.5298C18.1758 9.86504 17.8667 10.1198 17.5 10.2489V10.3501C17.5 10.496 17.4421 10.6359 17.3389 10.7391C17.2358 10.8422 17.0959 10.9001 16.95 10.9001C16.8041 10.9001 16.6642 10.8422 16.5611 10.7391C16.4579 10.6359 16.4 10.496 16.4 10.3501V10.2489C16.0794 10.1356 15.8017 9.92597 15.6048 9.64873C15.4078 9.37149 15.3014 9.04019 15.3 8.70015C15.3 8.55428 15.3579 8.41438 15.4611 8.31124C15.5642 8.20809 15.7041 8.15015 15.85 8.15015C15.9959 8.15015 16.1358 8.20809 16.2389 8.31124C16.3421 8.41438 16.4 8.55428 16.4 8.70015C16.4 8.80893 16.4323 8.91526 16.4927 9.00571C16.5531 9.09616 16.639 9.16665 16.7395 9.20828C16.84 9.24991 16.9506 9.2608 17.0573 9.23958C17.164 9.21836 17.262 9.16597 17.3389 9.08906C17.4158 9.01214 17.4682 8.91414 17.4894 8.80745C17.5107 8.70076 17.4998 8.59017 17.4581 8.48967C17.4165 8.38917 17.346 8.30327 17.2556 8.24284C17.1651 8.1824 17.0588 8.15015 16.95 8.15015C16.5612 8.15088 16.1848 8.01401 15.8873 7.76377C15.5898 7.51353 15.3904 7.16608 15.3245 6.78294C15.2587 6.39981 15.3305 6.00573 15.5274 5.67049C15.7242 5.33525 16.0333 5.0805 16.4 4.95135V4.85015C16.4 4.70428 16.4579 4.56438 16.5611 4.46124C16.6642 4.35809 16.8041 4.30015 16.95 4.30015C17.0959 4.30015 17.2358 4.35809 17.3389 4.46124C17.4421 4.56438 17.5 4.70428 17.5 4.85015V4.95135C17.8206 5.06469 18.0984 5.27432 18.2953 5.55156C18.4922 5.8288 18.5986 6.1601 18.6 6.50015C18.6 6.64602 18.5421 6.78591 18.4389 6.88905C18.3358 6.9922 18.1959 7.05015 18.05 7.05015C17.9041 7.05015 17.7642 6.9922 17.6611 6.88905C17.5579 6.78591 17.5 6.64602 17.5 6.50015C17.5 6.39137 17.4677 6.28503 17.4073 6.19458C17.3469 6.10414 17.261 6.03364 17.1605 5.99201C17.06 5.95038 16.9494 5.93949 16.8427 5.96071C16.736 5.98194 16.638 6.03432 16.5611 6.11124C16.4842 6.18816 16.4318 6.28616 16.4106 6.39285C16.3893 6.49954 16.4002 6.61012 16.4419 6.71062C16.4835 6.81112 16.554 6.89702 16.6444 6.95745C16.7349 7.01789 16.8412 7.05015 16.95 7.05015Z" fill="#959595"/>
<path d="M5.4 10.9001H1.55C1.40413 10.9001 1.26424 10.8421 1.16109 10.739C1.05795 10.6358 1 10.4959 1 10.3501V8.70007C1.00087 7.971 1.29089 7.27203 1.80642 6.75649C2.32196 6.24096 3.02092 5.95095 3.75 5.95007H5.4C5.54587 5.95007 5.68576 6.00802 5.78891 6.11116C5.89205 6.21431 5.95 6.3542 5.95 6.50007V10.3501C5.95 10.4959 5.89205 10.6358 5.78891 10.739C5.68576 10.8421 5.54587 10.9001 5.4 10.9001ZM2.1 9.80007H4.85V7.05007H3.75C3.31239 7.05007 2.89271 7.22391 2.58327 7.53335C2.27384 7.84278 2.1 8.26247 2.1 8.70007V9.80007Z" fill="#333333"/>
<path d="M11.4488 7.6C11.4478 8.79109 11.836 9.94991 12.5543 10.9H8.69883C8.8447 10.9 8.98459 10.8421 9.08774 10.7389C9.19088 10.6358 9.24883 10.4959 9.24883 10.35V1H13.6488C14.0363 1.00113 14.411 1.13834 14.7075 1.38765C15.0041 1.63696 15.2036 1.98253 15.2713 2.364C14.1626 2.72085 13.1955 3.41979 12.5087 4.36049C11.822 5.30119 11.4509 6.43529 11.4488 7.6ZM8.14883 10.35V1H5.94883C5.51122 1 5.09154 1.17384 4.7821 1.48327C4.47267 1.79271 4.29883 2.21239 4.29883 2.65V10.35C4.29883 10.4959 4.35677 10.6358 4.45992 10.7389C4.56306 10.8421 4.70296 10.9 4.84883 10.9H8.69883C8.55296 10.9 8.41306 10.8421 8.30992 10.7389C8.20677 10.6358 8.14883 10.4959 8.14883 10.35Z" fill="#959595"/>
<path d="M17.5 16.9499C17.5 17.3875 17.6738 17.8072 17.9833 18.1167C18.2927 18.4261 18.7124 18.5999 19.15 18.5999H23V15.2999H19.15C18.7124 15.2999 18.2927 15.4738 17.9833 15.7832C17.6738 16.0926 17.5 16.5123 17.5 16.9499Z" fill="#333333"/>
<path d="M19.15 19.6999C18.4207 19.6999 17.7212 19.4102 17.2055 18.8945C16.6897 18.3787 16.4 17.6793 16.4 16.9499C16.4 16.2206 16.6897 15.5211 17.2055 15.0054C17.7212 14.4897 18.4207 14.1999 19.15 14.1999H23V11.4499C23 11.0123 22.8262 10.5926 22.5167 10.2832C22.2073 9.97377 21.7876 9.79993 21.35 9.79993H1.55C1.40413 9.79993 1.26424 9.85787 1.16109 9.96102C1.05795 10.0642 1 10.2041 1 10.3499V20.2499C1.00087 20.979 1.29089 21.678 1.80642 22.1935C2.32196 22.709 3.02092 22.9991 3.75 22.9999H21.35C21.7876 22.9999 22.2073 22.8261 22.5167 22.5167C22.8262 22.2072 23 21.7875 23 21.3499V19.6999H19.15ZM4.3 14.7499H6.5C6.64587 14.7499 6.78576 14.8079 6.88891 14.911C6.99205 15.0142 7.05 15.1541 7.05 15.2999C7.05 15.4458 6.99205 15.5857 6.88891 15.6888C6.78576 15.792 6.64587 15.8499 6.5 15.8499H4.3C4.15413 15.8499 4.01424 15.792 3.91109 15.6888C3.80795 15.5857 3.75 15.4458 3.75 15.2999C3.75 15.1541 3.80795 15.0142 3.91109 14.911C4.01424 14.8079 4.15413 14.7499 4.3 14.7499ZM8.7 18.0499H4.3C4.15413 18.0499 4.01424 17.992 3.91109 17.8888C3.80795 17.7857 3.75 17.6458 3.75 17.4999C3.75 17.3541 3.80795 17.2142 3.91109 17.111C4.01424 17.0079 4.15413 16.9499 4.3 16.9499H8.7C8.84587 16.9499 8.98576 17.0079 9.08891 17.111C9.19205 17.2142 9.25 17.3541 9.25 17.4999C9.25 17.6458 9.19205 17.7857 9.08891 17.8888C8.98576 17.992 8.84587 18.0499 8.7 18.0499Z" fill="#333333"/>
</g>
<defs>
<clipPath id="clip0_314_2639">
<rect width="24" height="24" fill="white"/>
</clipPath>
</defs>
</svg>
