<svg width="24" height="24" viewBox="0 0 24 24" fill="none" xmlns="http://www.w3.org/2000/svg">
<rect width="24" height="24" fill="white"/>
<path d="M10.6323 4.44023C10.6323 2.59908 9.03334 1.00012 7.19219 1.00012C5.35105 1.00012 3.75209 2.59908 3.75209 4.44023C3.75209 6.28138 5.35105 7.88034 7.19219 7.88034C9.03334 7.88034 10.6323 6.28138 10.6323 4.44023ZM13.0404 17.5126C13.0404 12.0085 10.1837 9.25638 7.02019 9.25638C3.85667 9.25638 1 12.0085 1 17.5126C1 21.283 13.0404 21.283 13.0404 17.5126Z" fill="#333333"/>
<path d="M20.6084 7.1165C20.6084 8.95765 19.0094 10.5566 17.1683 10.5566C15.3271 10.5566 13.7282 8.95765 13.7282 7.1165C13.7282 5.27535 15.3271 3.67639 17.1683 3.67639C19.0094 3.67639 20.6084 5.27535 20.6084 7.1165Z" fill="#959595"/>
<path d="M14.3089 12.7101C15.1345 12.212 16.0454 11.9327 16.9963 11.9327C20.1598 11.9327 23.0165 14.6847 23.0165 20.1889C23.0165 23.3868 14.3777 23.8616 11.748 21.6351C13.8685 20.8095 15.1042 19.366 15.1042 17.5125C15.1042 15.6452 14.8084 14.0531 14.3089 12.7101Z" fill="#959595"/>
</svg>
