<svg width="356" height="356" viewBox="0 0 356 356" fill="none" xmlns="http://www.w3.org/2000/svg">
<path d="M228.606 150.188H206.356V119.594C206.356 114.43 204.305 109.478 200.654 105.827C197.003 102.176 192.051 100.125 186.888 100.125H170.2C165.037 100.125 160.085 102.176 156.434 105.827C152.783 109.478 150.731 114.43 150.731 119.594V150.188H128.481V119.594C128.481 108.529 132.877 97.9179 140.701 90.0941C148.524 82.2704 159.136 77.875 170.2 77.875H186.888C197.952 77.875 208.564 82.2704 216.387 90.0941C224.211 97.9179 228.606 108.529 228.606 119.594V150.188Z" fill="#333333"/>
<path d="M250.563 150.188H105.938C102.866 150.188 100.376 152.678 100.376 155.75V261.438C100.376 264.51 102.866 267 105.938 267H250.563C253.636 267 256.126 264.51 256.126 261.438V155.75C256.126 152.678 253.636 150.188 250.563 150.188Z" fill="#D2D2D2"/>
<path d="M250.981 278.125H106.356C101.931 278.125 97.6861 276.367 94.5566 273.237C91.4271 270.108 89.6689 265.863 89.6689 261.438V155.75C89.6689 151.324 91.4271 147.08 94.5566 143.95C97.6861 140.821 101.931 139.063 106.356 139.062H250.981C255.407 139.062 259.652 140.821 262.781 143.95C265.911 147.08 267.669 151.324 267.669 155.75V261.438C267.669 265.863 265.911 270.108 262.781 273.237C259.652 276.367 255.407 278.125 250.981 278.125ZM111.919 255.875H245.419V161.312H111.919V255.875Z" fill="#D2D2D2"/>
<path d="M178.627 211.375C187.844 211.375 195.315 203.904 195.315 194.688C195.315 185.471 187.844 178 178.627 178C169.411 178 161.94 185.471 161.94 194.688C161.94 203.904 169.411 211.375 178.627 211.375Z" fill="#333333"/>
<path d="M189.543 239.188H167.293L172.856 200.25H183.981L189.543 239.188Z" fill="#333333"/>
</svg>
