<svg width="26" height="24" viewBox="0 0 26 24" fill="none" xmlns="http://www.w3.org/2000/svg">
<path d="M19.3265 17.2885C19.4802 17.1348 19.5668 16.9261 19.5668 16.7088C19.5668 16.4915 19.4805 16.2831 19.3269 16.1295C19.1732 15.9758 18.9649 15.8895 18.7476 15.8895C18.5303 15.8895 18.322 15.9758 18.1684 16.1295L15.2764 19.022L12.3844 16.1296C12.2307 15.9758 12.0224 15.8895 11.8051 15.8895C11.5878 15.8895 11.3795 15.9758 11.2259 16.1295C11.0722 16.2831 10.9859 16.4915 10.9859 16.7088C10.9859 16.9261 11.0722 17.1345 11.2259 17.2881L14.6971 20.76C15.017 21.08 15.5357 21.08 15.8556 20.76L19.3265 17.2885Z" fill="#717578"/>
<path d="M14.4572 11.9875V20.1807C14.4572 20.6332 14.824 21 15.2764 21C15.7288 21 16.0956 20.6332 16.0956 20.1807V11.9875C16.0956 11.535 15.7288 11.1682 15.2764 11.1682C14.824 11.1682 14.4572 11.535 14.4572 11.9875Z" fill="#717578"/>
<path d="M8.30908 9.67919L8.31025 9.67948C8.37492 9.69557 8.44132 9.7037 8.50796 9.7037C8.65678 9.7037 8.80277 9.66316 8.93027 9.58644C9.11644 9.47441 9.25048 9.29301 9.30292 9.08214C9.31901 9.01746 9.32714 8.95105 9.32714 8.88439C9.32714 8.87484 9.32697 8.86528 9.32664 8.85573C9.31385 8.49029 9.06048 8.17756 8.70568 8.0893L8.7047 8.08905C7.90667 7.89066 7.08434 7.89097 7.08434 7.89097C5.7811 7.89097 4.57677 8.3899 4.57677 8.3899C3.37245 8.88884 2.4507 9.81074 2.4507 9.81074C1.52895 10.7327 1.0301 11.9372 1.0301 11.9372C0.53125 13.1417 0.53125 14.4455 0.53125 14.4455C0.53125 15.7493 1.0301 16.9538 1.0301 16.9538C1.52895 18.1583 2.4507 19.0802 2.4507 19.0802C3.37245 20.0021 4.57677 20.5011 4.57677 20.5011C5.7811 21 7.08465 21 7.08465 21H9.54217C9.99459 21 10.3613 20.6332 10.3613 20.1807C10.3613 19.7282 9.99459 19.3614 9.54217 19.3614H7.08465C5.04877 19.3614 3.60918 17.9215 3.60918 17.9215C2.1696 16.4817 2.1696 14.4455 2.1696 14.4455C2.1696 12.4093 3.60918 10.9694 3.60918 10.9694C5.04877 9.5296 7.08495 9.5296 7.08495 9.5296C7.70607 9.52937 8.30908 9.67919 8.30908 9.67919Z" fill="#717578"/>
<path d="M21.9959 16.4088C21.9948 16.4103 21.9936 16.4118 21.9936 16.4118C21.8873 16.5536 21.8298 16.7261 21.8298 16.9034C21.8298 16.9139 21.83 16.9244 21.8304 16.9348C21.8399 17.1815 21.96 17.4107 22.1575 17.5588C22.2993 17.6652 22.4717 17.7227 22.649 17.7227C22.6595 17.7227 22.67 17.7225 22.6804 17.7221C22.927 17.7126 23.1562 17.5924 23.3043 17.3949C24.6073 15.657 24.976 13.5155 24.976 13.5155C25.3444 11.3742 24.6966 9.30025 24.6966 9.30025C24.0489 7.22633 22.5274 5.67546 22.5274 5.67546C21.006 4.12459 18.9451 3.4375 18.9451 3.4375C16.8842 2.75042 14.7366 3.07809 14.7366 3.07809C12.5891 3.40576 10.8268 4.67619 10.8268 4.67619C9.06447 5.94661 8.07456 7.88067 8.07456 7.88067C7.08465 9.81473 7.08465 11.9875 7.08465 11.9875C7.08465 12.44 7.45141 12.8068 7.90382 12.8068C8.35624 12.8068 8.723 12.44 8.723 11.9875C8.723 10.2098 9.53292 8.62736 9.53292 8.62736C10.3429 7.04495 11.7848 6.00551 11.7848 6.00551C13.2267 4.96607 14.9837 4.69798 14.9837 4.69798C16.7408 4.42988 18.427 4.99204 18.427 4.99204C20.1132 5.5542 21.358 6.8231 21.358 6.8231C22.6028 8.092 23.1328 9.78883 23.1328 9.78883C23.6628 11.4857 23.3614 13.2376 23.3614 13.2376C23.0604 14.9878 21.9959 16.4088 21.9959 16.4088Z" fill="#717578"/>
</svg>
