<svg width="24" height="24" viewBox="0 0 24 24" fill="none" xmlns="http://www.w3.org/2000/svg">
<path d="M0 2.2C0 2.08954 0.0895431 2 0.2 2H9.81175C9.9223 2 10.0119 2.0897 10.0117 2.20025L10.0043 8.0884C10.0041 8.19896 10.0937 8.28866 10.2043 8.28866H15.8C15.9105 8.28866 16 8.3782 16 8.48866V14.3983C16 14.5088 15.9105 14.5983 15.8 14.5983H8.2C8.08954 14.5983 8 14.6879 8 14.7983V16.4987C8 16.6092 8.08954 16.6987 8.2 16.6987H15.8C15.9105 16.6987 16 16.7883 16 16.8987V22.8C16 22.9105 15.9105 23 15.8 23H0.2C0.0895429 23 0 22.9105 0 22.8V2.2ZM12.0074 3.37206C12.0076 3.19175 12.2276 3.10378 12.3521 3.2342L14.8492 5.85014C14.9707 5.97741 14.8805 6.18824 14.7046 6.18824H12.2042C12.0937 6.18824 12.0041 6.09855 12.0042 5.988L12.0074 3.37206Z" fill="#333333"/>
<path d="M16.8766 16.6009H15.2C15.0895 16.6009 15 16.5113 15 16.4009V14.6035C15 14.4931 15.0895 14.4035 15.2 14.4035H16.8766C16.9871 14.4035 17.0766 14.314 17.0766 14.2035V10.4148C17.0766 10.2474 17.2701 10.154 17.4012 10.2583L23.803 15.3542C23.9037 15.4344 23.9036 15.5874 23.8027 15.6674L18.74 19.6816L17.4008 20.743C17.2697 20.8469 17.0766 20.7536 17.0766 20.5863V16.8009C17.0766 16.6904 16.9871 16.6009 16.8766 16.6009Z" fill="#959595"/>
</svg>
