<svg width="35" height="35" viewBox="0 0 35 35" fill="none" xmlns="http://www.w3.org/2000/svg">
<path d="M19.8242 20.5625C19.4961 20.0977 19.1953 19.6328 18.8672 19.168C18.8398 19.1406 18.8125 19.0859 18.8125 19.0586C19.6602 18.1836 20.3438 17.1719 20.8086 15.9961C20.8359 15.9961 20.8359 15.9961 20.8633 15.9961C21.4648 16.1055 22.0938 16.2148 22.6953 16.3516C22.7227 16.3516 22.75 16.3516 22.7773 16.3516C22.9961 15.7773 23.1328 15.1758 23.2695 14.5742C23.3789 13.9453 23.4609 13.3438 23.4609 12.7422H23.4336C22.8594 12.6328 22.2578 12.5234 21.6836 12.4141C21.6016 12.4141 21.5469 12.3867 21.4922 12.3594C21.4648 11.1289 21.2188 9.92578 20.7539 8.83203C20.8086 8.77734 20.8906 8.72266 21 8.64062C21.4648 8.3125 21.9297 7.98438 22.3945 7.68359C21.875 6.5625 21.1641 5.52344 20.3164 4.64844C19.8242 5.00391 19.332 5.33203 18.8398 5.6875C18.7852 5.74219 18.7031 5.76953 18.6484 5.76953C17.8008 4.94922 16.7617 4.26562 15.6133 3.80078C15.6133 3.77344 15.6133 3.71875 15.6133 3.66406C15.6953 3.36328 15.7227 3.03516 15.8047 2.70703C15.8594 2.40625 15.9141 2.10547 15.9688 1.83203C15.3945 1.64062 14.8203 1.47656 14.2188 1.36719C13.6172 1.25781 13.0156 1.20312 12.4141 1.17578C12.3594 1.47656 12.3047 1.77734 12.25 2.07812C12.1953 2.40625 12.1133 2.70703 12.0859 3.03516C12.0859 3.08984 12.0586 3.11719 12.0586 3.17188C10.8281 3.17188 9.625 3.44531 8.53125 3.91016C8.47656 3.88281 8.44922 3.82812 8.39453 3.74609C8.06641 3.25391 7.71094 2.76172 7.38281 2.24219C6.26172 2.76172 5.22266 3.47266 4.34766 4.32031C4.67578 4.78516 5.00391 5.25 5.30469 5.71484C5.38672 5.82422 5.44141 5.90625 5.46875 5.96094C4.64844 6.80859 3.96484 7.82031 3.5 8.96875C3.44531 8.96875 3.39062 8.96875 3.30859 8.94141C2.73438 8.80469 2.13281 8.72266 1.55859 8.61328H1.53125C1.3125 9.1875 1.14844 9.78906 1.03906 10.3906C0.929688 10.9922 0.847656 11.6211 0.847656 12.2227C0.875 12.2227 0.902344 12.2227 0.929688 12.25C1.53125 12.3594 2.16016 12.4688 2.76172 12.5781C2.78906 12.5781 2.81641 12.5781 2.81641 12.6055C2.84375 13.8633 3.08984 15.0664 3.58203 16.1875C3.55469 16.2148 3.52734 16.2422 3.47266 16.2695C3.00781 16.5703 2.54297 16.8984 2.07812 17.2266C2.02344 17.2539 1.96875 17.3086 1.94141 17.3359C2.46094 18.457 3.17188 19.4688 4.01953 20.3438L4.04688 20.3164C4.53906 19.9609 5.05859 19.6328 5.55078 19.2773C5.57812 19.25 5.63281 19.2227 5.66016 19.2227C6.50781 20.0703 7.54687 20.7266 8.69531 21.1914C8.69531 21.2461 8.69531 21.3008 8.66797 21.3555C8.53125 21.957 8.44922 22.5312 8.3125 23.1328V23.1602C8.85938 23.3516 9.46094 23.5156 10.0625 23.625C10.6641 23.7344 11.2656 23.7891 11.8672 23.8164V23.7891C11.9766 23.1875 12.0859 22.6133 12.1953 22.0117C12.1953 21.957 12.2227 21.9023 12.25 21.8477C13.4805 21.8477 14.7109 21.5742 15.8047 21.1094C15.832 21.1367 15.8594 21.1641 15.8867 21.2187C16.2148 21.7383 16.5703 22.2305 16.9258 22.75L16.9531 22.7773C18.0742 22.2578 19.0859 21.5742 19.9883 20.7266C19.9062 20.6719 19.8516 20.6445 19.8242 20.5625ZM17.7461 13.5625C17.6914 13.8633 17.6094 14.1641 17.5 14.4648C17.1992 15.3125 16.6797 16.0508 16.0508 16.6523C15.6133 17.0898 15.0938 17.418 14.5195 17.6914C13.7266 18.0469 12.8789 18.2383 11.9766 18.2109C11.6758 18.2109 11.375 18.1836 11.0742 18.1016C10.7734 18.0469 10.4727 17.9648 10.1992 17.8555C9.35156 17.5547 8.61328 17.0625 8.01172 16.4336C7.57422 15.9961 7.21875 15.4766 6.97266 14.9023C6.58984 14.1094 6.39844 13.2344 6.42578 12.332C6.42578 12.0312 6.45312 11.7031 6.53516 11.4023C6.58984 11.1016 6.67187 10.8008 6.78125 10.5C7.08203 9.65234 7.57422 8.91406 8.20312 8.3125C8.66797 7.875 9.1875 7.51953 9.73438 7.27344C10.5273 6.91797 11.375 6.72656 12.2773 6.75391C12.5781 6.75391 12.8789 6.78125 13.1797 6.86328C13.4805 6.91797 13.7813 7 14.0547 7.10938C14.9023 7.41016 15.6406 7.90234 16.2422 8.53125C16.6797 8.99609 17.0352 9.51562 17.3086 10.0625C17.6641 10.8555 17.8555 11.7031 17.8555 12.6055C17.8281 12.9336 17.8008 13.2617 17.7461 13.5625Z" fill="#333333"/>
<path d="M14.0273 10.6914C13.7539 10.418 13.4258 10.1719 13.0156 10.0352C12.8789 9.98047 12.7422 9.95313 12.6055 9.92578C12.4687 9.89844 12.332 9.89844 12.1953 9.87109C11.7852 9.87109 11.375 9.95313 11.0195 10.1172C10.7461 10.2266 10.5273 10.3906 10.3086 10.6094C10.0352 10.8828 9.78906 11.2109 9.65234 11.6211C9.59766 11.7578 9.57031 11.8945 9.54297 12.0313C9.51563 12.168 9.48828 12.3047 9.48828 12.4688C9.48828 12.8789 9.57031 13.2891 9.73437 13.6445C9.84375 13.8906 10.0078 14.1367 10.2266 14.3555C10.5 14.6289 10.8555 14.875 11.2383 15.0117C11.375 15.0664 11.5117 15.0938 11.6484 15.1211C11.7852 15.1484 11.9219 15.1484 12.0586 15.1758C12.4687 15.1758 12.8789 15.0938 13.2344 14.9297C13.4805 14.8203 13.7266 14.6563 13.9453 14.4648C14.2461 14.1914 14.4648 13.8359 14.6016 13.4531C14.6562 13.3164 14.6836 13.1797 14.7109 13.043C14.7383 12.9063 14.7656 12.7695 14.7656 12.6055C14.7656 12.1953 14.6836 11.7852 14.5195 11.4297C14.3828 11.1289 14.2187 10.9102 14.0273 10.6914ZM34.1797 26.4141C33.7969 26.332 33.4141 26.25 33.0039 26.1953C32.9492 26.1953 32.9219 26.168 32.8945 26.168C32.8945 25.3477 32.7031 24.5547 32.4023 23.8164C32.4297 23.7891 32.4844 23.7344 32.5664 23.6797C32.8672 23.4609 33.1953 23.2422 33.4961 23.0508C33.1406 22.3125 32.6758 21.6289 32.1016 21.0273C31.7734 21.2461 31.4453 21.4648 31.1172 21.7109C31.0625 21.7383 31.0352 21.7656 31.0078 21.7656C30.4336 21.2188 29.75 20.7539 28.9844 20.4531C28.9844 20.4258 28.9844 20.3984 28.9844 20.3711C29.0391 20.1523 29.0664 19.9609 29.0938 19.7422C29.1211 19.5508 29.1484 19.3594 29.2031 19.1406C28.8203 19.0039 28.4375 18.8945 28.0273 18.8125C27.6172 18.7305 27.2344 18.7031 26.8242 18.6758C26.7969 18.8672 26.7422 19.0586 26.7148 19.2773C26.6875 19.4961 26.6328 19.6875 26.6055 19.9063C26.6055 19.9336 26.6055 19.9609 26.5781 19.9883C25.7578 19.9883 24.9648 20.1797 24.2266 20.4805C24.1992 20.4531 24.1719 20.4258 24.1445 20.3711C23.9258 20.043 23.6797 19.7148 23.4609 19.3867C22.7227 19.7422 22.0391 20.207 21.4375 20.7812C21.6562 21.082 21.875 21.4102 22.0938 21.7109C22.1484 21.793 22.1758 21.8477 22.2031 21.875C21.6562 22.4492 21.1914 23.1328 20.8906 23.8711C20.8633 23.8711 20.8086 23.8711 20.7539 23.8711C20.3711 23.7891 19.9883 23.707 19.5781 23.6523H19.5508C19.4141 24.0352 19.3047 24.418 19.2227 24.8555C19.1406 25.2656 19.1133 25.6758 19.0859 26.0859C19.1133 26.0859 19.1133 26.0859 19.1406 26.0859C19.5508 26.168 19.9609 26.25 20.3711 26.3047C20.3984 26.3047 20.3984 26.3047 20.4258 26.3047C20.4258 27.1523 20.6172 27.9453 20.9453 28.6836C20.918 28.7109 20.918 28.7109 20.8906 28.7383C20.5625 28.957 20.2617 29.1484 19.9609 29.3672C19.9336 29.3945 19.8789 29.4219 19.8516 29.4219C20.207 30.1602 20.6719 30.8438 21.2461 31.418C21.2461 31.418 21.2734 31.418 21.2734 31.3906C21.6016 31.1445 21.957 30.9258 22.2852 30.707C22.3125 30.6797 22.3398 30.6797 22.3672 30.6797C22.9414 31.2266 23.625 31.6914 24.3906 31.9922C24.3906 32.0195 24.3906 32.0469 24.3906 32.1016C24.3086 32.4844 24.2539 32.8945 24.1719 33.2773V33.3047C24.5547 33.4414 24.9375 33.5508 25.3477 33.6328C25.7578 33.7148 26.1406 33.7422 26.5508 33.7695V33.7422C26.6055 33.3594 26.7148 32.9492 26.7695 32.5664C26.7695 32.5391 26.7969 32.4844 26.7969 32.457C27.6172 32.457 28.4375 32.2656 29.1758 31.9648C29.2031 31.9922 29.2031 31.9922 29.2305 32.0195C29.4492 32.3477 29.6953 32.7031 29.9141 33.0313C29.9141 33.0313 29.9141 33.0586 29.9414 33.0586C30.6797 32.7031 31.3633 32.2383 31.9648 31.6914C31.9375 31.6641 31.9375 31.6367 31.9102 31.582C31.6914 31.2812 31.5 30.9531 31.2812 30.6523C31.2539 30.625 31.2539 30.5977 31.2266 30.5703C31.8008 29.9961 32.2383 29.3125 32.5664 28.5195C32.5664 28.5195 32.5938 28.5195 32.6211 28.5195C33.0313 28.6016 33.4414 28.6562 33.8516 28.7383C33.8789 28.7383 33.8789 28.7383 33.9062 28.7383C34.043 28.3555 34.1523 27.9727 34.2344 27.5625C34.1523 27.2344 34.1797 26.8242 34.1797 26.4141ZM30.4062 26.9609C30.3789 27.1797 30.3242 27.3711 30.2422 27.5625C30.0508 28.1367 29.6953 28.6289 29.2852 29.0117C28.9844 29.2852 28.6289 29.5312 28.2734 29.6953C27.7539 29.9414 27.1797 30.0781 26.5781 30.0508C26.3867 30.0508 26.168 30.0234 25.9766 29.9961C25.7852 29.9688 25.5664 29.9141 25.4023 29.832C24.8281 29.6406 24.3359 29.3125 23.9531 28.875C23.6797 28.5742 23.4336 28.2461 23.2422 27.8633C22.9961 27.3438 22.8594 26.7695 22.8867 26.1406C22.8867 25.9492 22.9141 25.7305 22.9414 25.5117C22.9688 25.293 23.0234 25.1016 23.1055 24.9102C23.2969 24.3359 23.6523 23.8438 24.0625 23.4609C24.3633 23.1602 24.7188 22.9414 25.1016 22.75C25.6211 22.5039 26.1953 22.3672 26.7969 22.3945C26.9883 22.3945 27.207 22.4219 27.3984 22.4492C27.5898 22.4766 27.8086 22.5312 28 22.6133C28.5742 22.8047 29.0664 23.1328 29.4492 23.5703C29.75 23.8711 29.9688 24.2266 30.1602 24.582C30.4063 25.1016 30.543 25.6758 30.5156 26.2773C30.4609 26.5508 30.4336 26.7695 30.4062 26.9609Z" fill="#8E8E8E"/>
<path d="M27.918 25.0469C27.7266 24.8555 27.5078 24.7188 27.2617 24.6094C27.1797 24.582 27.0977 24.5547 26.9883 24.5273C26.9062 24.5 26.7969 24.5 26.7148 24.5C26.4414 24.5 26.168 24.5547 25.9219 24.6641C25.7578 24.7461 25.5938 24.8555 25.457 24.9922C25.2656 25.1836 25.1016 25.4023 25.0195 25.6484C24.9922 25.7305 24.9648 25.8398 24.9375 25.9219C24.9102 26.0039 24.9102 26.1133 24.9102 26.1953C24.9102 26.4688 24.9648 26.7422 25.0742 26.9883C25.1562 27.1523 25.2656 27.3164 25.4023 27.4531C25.5938 27.6445 25.8125 27.7813 26.0586 27.8906C26.1406 27.918 26.2227 27.9453 26.332 27.9727C26.4141 28 26.5234 28 26.6055 28C26.8789 28 27.1523 27.9453 27.3984 27.8359C27.5625 27.7539 27.7266 27.6445 27.8633 27.5078C28.0547 27.3164 28.2188 27.0977 28.3008 26.8242C28.3281 26.7422 28.3555 26.6328 28.3828 26.5508C28.4102 26.4688 28.4102 26.3594 28.4102 26.2773C28.4102 26.0039 28.3555 25.7305 28.2461 25.4844C28.1641 25.3477 28.0547 25.1836 27.918 25.0469Z" fill="#333333"/>
</svg>
