<svg width="24" height="24" viewBox="0 0 24 24" fill="none" xmlns="http://www.w3.org/2000/svg">
<g clip-path="url(#clip0_314_2660)">
<rect width="24" height="24" fill="white"/>
<path d="M5.5 17.5H8L9 16L10.5 15.5L13.5 14.5C14.3333 14.3333 16.2 14 17 14C18 14 19.5 13.5 20.9999 13L21 13C22.2 12.6 22.1667 14.1667 22 15L21.5 19.5L17 21L16 22H11.5L8.5 21.5L4 20L2.5 19.5L3.5 17.5H5.5Z" fill="#333333"/>
<path fill-rule="evenodd" clip-rule="evenodd" d="M5.9878 16.6229C4.56526 16.1316 2.97193 16.4674 1.90167 17.484L1.22744 18.1244C1.04803 18.2949 0.967202 18.5376 1.01083 18.775C1.05447 19.0125 1.21705 19.2148 1.44664 19.3174L8.26668 22.366C9.72942 23.0199 11.385 23.1735 12.9534 22.8011L19.1089 21.3394C19.5263 21.2403 19.7801 20.8385 19.6758 20.4419C19.5714 20.0454 19.1484 19.8043 18.7309 19.9034L12.5754 21.3651C11.3556 21.6547 10.0679 21.5352 8.93021 21.0267L3.11831 18.4288C3.75618 17.899 4.65117 17.7363 5.45527 18.014L6.95 18.5303C8.61294 19.1047 10.3959 19.2956 12.1518 19.0871L13.8221 18.8887C14.2491 18.8381 14.552 18.4681 14.4986 18.0626C14.4453 17.657 14.0558 17.3692 13.6289 17.42L11.9584 17.6183C10.4476 17.7977 8.91349 17.6335 7.48253 17.1392L5.9878 16.6229Z" fill="#333333"/>
<path fill-rule="evenodd" clip-rule="evenodd" d="M17.4904 14.4384C17.4238 14.0198 17.0278 13.734 16.6058 13.8001L9.35553 14.936C7.62449 15.2072 6.8062 17.2088 7.85776 18.6L9.09525 17.6791C8.74318 17.2132 9.01718 16.5429 9.59684 16.4521L16.8471 15.3162C17.269 15.2501 17.557 14.8571 17.4904 14.4384ZM6.92964 2.53488C9.35017 2.53488 11.3124 4.48192 11.3124 6.88372C11.3124 9.28552 9.35017 11.2326 6.92964 11.2326C4.50911 11.2326 2.54686 9.28552 2.54686 6.88372C2.54686 4.48192 4.50911 2.53488 6.92964 2.53488ZM12.8593 6.88372C12.8593 3.63423 10.2045 1 6.92964 1C3.65483 1 1 3.63423 1 6.88372C1 10.1332 3.65483 12.7674 6.92964 12.7674C10.2045 12.7674 12.8593 10.1332 12.8593 6.88372Z" fill="#333333"/>
<path fill-rule="evenodd" clip-rule="evenodd" d="M7.05039 3.19995C7.44092 3.19995 7.75753 3.5447 7.75753 3.96995V4.22662H7.99325C8.38378 4.22662 8.70039 4.57136 8.70039 4.99662C8.70039 5.42187 8.38378 5.76662 7.99325 5.76662H7.05039C6.92018 5.76662 6.81468 5.88153 6.81468 6.02328V6.27995H7.99325C8.38378 6.27995 8.70039 6.6247 8.70039 7.04995V8.07662C8.70039 8.79333 8.31495 9.41203 7.75753 9.70038V10.13C7.75753 10.5552 7.44092 10.9 7.05039 10.9C6.65986 10.9 6.34325 10.5552 6.34325 10.13V9.87328H6.10753C5.717 9.87328 5.40039 9.52854 5.40039 9.10328C5.40039 8.67803 5.717 8.33328 6.10753 8.33328H7.05039C7.1806 8.33328 7.2861 8.21837 7.2861 8.07662V7.81995H6.10753C5.717 7.81995 5.40039 7.47521 5.40039 7.04995V6.02328C5.40039 5.30657 5.78583 4.68787 6.34325 4.39952V3.96995C6.34325 3.5447 6.65986 3.19995 7.05039 3.19995Z" fill="#333333"/>
<path fill-rule="evenodd" clip-rule="evenodd" d="M22.2385 10.9C22.659 10.9 23 11.2518 23 11.6857V21.1143C23 21.5482 22.659 21.9 22.2385 21.9H19.1923C18.8473 21.9 18.5454 21.6607 18.4565 21.3167L16.4258 13.4596C16.3383 13.1211 16.4786 12.7636 16.7698 12.5834L17.4995 12.1317C18.8014 11.3258 20.2911 10.9 21.8094 10.9H22.2385Z" fill="#959595"/>
</g>
<defs>
<clipPath id="clip0_314_2660">
<rect width="24" height="24" fill="white"/>
</clipPath>
</defs>
</svg>
