<svg width="120" height="32" viewBox="0 0 120 32" fill="none" xmlns="http://www.w3.org/2000/svg">
<path d="M40.7431 20.1048C39.5918 20.1048 38.9802 19.5641 38.9083 18.4106C38.9083 17.3292 39.6638 16.6443 41.1028 16.392C42.1822 16.1757 43.1535 15.8874 44.017 15.5269V16.8606C43.981 18.8792 42.7578 20.1048 40.7431 20.1048ZM41.6065 11.0572C43.1176 11.0572 43.8731 11.4537 43.945 12.2827C43.945 13.0758 43.1535 13.5444 41.6065 13.7246C37.9369 14.085 35.4185 15.0222 35.3466 18.4827C35.3466 21.6908 37.757 23.3129 41.2108 23.0245C45.1323 22.7361 47.5427 20.9699 47.5427 16.9687V12.0665C47.4707 9.39904 45.4201 8.06533 41.4626 8.06533C38.1168 8.06533 36.246 9.363 35.8143 12.0665H39.4479C39.5918 11.3816 40.3114 11.0572 41.6065 11.0572ZM55.6735 11.3455C57.6522 11.3455 58.6595 12.7153 58.7315 15.5269C58.7315 18.4466 57.6882 19.9245 55.6015 19.9245C53.5149 19.9245 52.5435 18.4466 52.5795 15.5269C52.6874 12.7153 53.6947 11.3455 55.6735 11.3455ZM60.5303 4.1363H58.7315V10.3002C57.7961 8.78626 56.393 8.06533 54.5942 8.06533C50.7446 8.20952 48.8379 10.7328 48.8379 15.6711C48.8379 20.5013 51.0684 22.9164 55.5655 23.0245C60.0626 23.0605 62.3292 20.8978 62.3292 16.5362V5.97465C62.3292 5.00141 61.5377 4.1363 60.5303 4.1363ZM69.8483 11.2734C71.4673 11.2734 72.2948 12.0304 72.3667 13.5083V22.7722H76.0363V13.5804C76.0723 12.0665 76.8998 11.3455 78.4828 11.3455C80.1017 11.3455 80.9292 12.1025 81.0011 13.5804V21.042C81.0011 22.1954 81.6128 22.7722 82.8 22.8443H84.6708V14.3013C84.7068 10.156 82.6561 8.10138 78.5188 8.10138C76.648 8.10138 75.2449 8.49789 74.2015 9.2909C73.1582 8.46184 71.7551 8.06533 69.8843 8.06533C65.747 8.06533 63.6603 10.12 63.6603 14.2653V22.7722H67.3659V13.5083C67.4379 12.0304 68.2294 11.2734 69.8483 11.2734ZM86.5416 4.1363V6.98395H90.1752V5.90256C90.2112 4.71304 89.6356 4.1363 88.4124 4.1363H86.5416ZM86.5416 8.28161V22.7722H90.1752V10.0479C90.1752 8.85835 89.5996 8.28161 88.4124 8.28161H86.5416ZM104.278 22.7722V14.2653C104.314 10.12 102.299 8.06533 98.1621 8.06533C94.0248 8.06533 91.9381 10.12 91.9381 14.2653V22.7722H95.6437V13.5083C95.6797 11.9944 96.5072 11.2734 98.0901 11.2734C99.6731 11.2734 100.537 12.0304 100.609 13.5083V20.9699C100.609 22.1233 101.22 22.7001 102.407 22.7722H104.278Z" fill="#CFE3FF"/>
<path d="M116.69 7.01999C115.935 7.01999 115.431 7.34441 115.107 7.99324L112.301 12.7153L109.819 8.31766H105.645L110.07 15.3467L105.357 22.7722H109.819L112.409 18.1583L114.963 22.7722H119.352L114.532 15.3827L120 6.98395H116.69V7.01999Z" fill="#0069FF"/>
<path d="M30.0219 20.1769L29.3024 22.4478C29.1225 23.0245 28.5109 23.3129 27.9353 23.1326L26.3523 22.628C25.8846 22.4838 25.3809 22.664 25.1291 23.0605C24.8773 23.4571 24.5894 23.8175 24.3016 24.178C23.9778 24.5384 23.9778 25.0791 24.2656 25.4756L25.237 26.8094C25.5968 27.278 25.4889 27.9628 24.9852 28.3233L23.0784 29.7291C22.6107 30.0896 21.9272 29.9814 21.5674 29.4768L20.632 28.1431C20.3442 27.7466 19.8405 27.6024 19.3728 27.7826C18.9411 27.9628 18.5094 28.071 18.0776 28.2152C17.6099 28.3233 17.2861 28.7558 17.2861 29.2605V30.9186C17.2861 31.5314 16.8184 32 16.2068 32H13.8324C13.2208 32 12.7531 31.5314 12.7531 30.9186V29.2244C12.7531 28.7558 12.4293 28.3233 11.9616 28.1791C11.5299 28.071 11.0981 27.9268 10.6664 27.7466C10.1987 27.5663 9.69504 27.7105 9.40722 28.107L8.43585 29.4407C8.07608 29.9093 7.42849 30.0175 6.92482 29.693L5.01805 28.3233C4.55035 27.9628 4.44242 27.314 4.76621 26.8094L5.73758 25.4756C6.0254 25.0791 6.0254 24.5384 5.70161 24.178C5.41379 23.8175 5.16196 23.4571 4.91012 23.0605C4.65828 22.664 4.11863 22.4838 3.68691 22.628L2.1399 23.1326C1.56427 23.3129 0.952666 23.0245 0.772782 22.4478L0.0532457 20.1769C-0.126638 19.6001 0.161176 18.9873 0.736805 18.8071L2.31979 18.3025C2.78748 18.1583 3.0753 17.7257 3.0753 17.2211C3.0753 17.0048 3.03932 16.7525 3.03932 16.5362C3.03932 16.3199 3.03932 16.0676 3.0753 15.8513C3.11128 15.3467 2.78748 14.9141 2.31979 14.7699L0.736805 14.2653C0.161176 14.085 -0.126638 13.4723 0.0532457 12.8955L0.772782 10.6246C0.952666 10.0479 1.56427 9.7595 2.1399 9.93974L3.72288 10.4444C4.19058 10.5886 4.69426 10.4083 4.94609 10.0118C5.19793 9.61532 5.44977 9.25486 5.73758 8.8944C6.06138 8.53393 6.06138 7.99324 5.77356 7.59673L4.80219 6.26302C4.44242 5.79442 4.55035 5.10955 5.05402 4.74908L6.9608 3.34328C7.4285 2.98282 8.11206 3.09096 8.47182 3.59561L9.4432 4.92931C9.73101 5.32582 10.2347 5.47001 10.7024 5.28978C11.1341 5.10955 11.5658 4.96536 11.9976 4.85722C12.4653 4.74908 12.789 4.31653 12.789 3.81188V2.15376C12.789 1.54097 13.2567 1.07237 13.8683 1.07237H15.7391C14.6958 2.40608 14.1202 4.10025 14.1202 5.93861C14.1202 6.80372 14.2641 7.63278 14.5159 8.38975C10.2707 8.78626 6.92482 12.2827 6.92482 16.5722C6.92482 21.042 10.5585 24.6826 15.0196 24.6826C19.4807 24.6826 23.1144 21.042 23.1144 16.5722C23.1144 15.6711 22.9705 14.842 22.7186 14.049C25.3809 13.8688 27.6475 12.3548 28.9426 10.1921C29.0865 10.3362 29.2305 10.4804 29.3024 10.6967L30.0219 12.9676C30.2018 13.5444 29.914 14.1571 29.3384 14.3374L27.7554 14.806C27.2877 14.9502 26.9999 15.3827 26.9999 15.8874C26.9999 16.1036 27.0359 16.3199 27.0359 16.5722C27.0359 16.7885 27.0359 17.0408 26.9999 17.2571C26.9639 17.7618 27.2877 18.1943 27.7554 18.3385L29.3384 18.8431C29.878 19.0234 30.2018 19.6362 30.0219 20.1769Z" fill="#CFE3FF"/>
<path d="M26.4962 10.2642C28.8347 7.92115 28.8347 4.10025 26.4962 1.75725C24.1577 -0.585751 20.3442 -0.585751 18.0057 1.75725C15.6672 4.10025 15.6672 7.92115 18.0057 10.2642C20.3442 12.6072 24.1577 12.6072 26.4962 10.2642Z" fill="#0069FF"/>
<path d="M24.6974 4.6049C24.6974 5.90256 23.654 6.9479 22.3589 6.9479C21.0637 6.9479 20.0204 5.90256 20.0204 4.6049C20.0204 3.30723 21.0637 2.26189 22.3589 2.26189C23.654 2.26189 24.6974 3.30723 24.6974 4.6049Z" fill="#CFE3FF"/>
<path d="M22.3588 10.9851C23.7979 10.9851 25.0931 10.4083 26.0285 9.47114C25.4529 7.99325 24.0138 6.94791 22.3588 6.94791C20.7039 6.94791 19.2648 7.99325 18.6892 9.47114C19.6606 10.4083 20.9557 10.9851 22.3588 10.9851Z" fill="#13ECFC"/>
</svg>
