<svg width="35" height="34" viewBox="0 0 35 34" fill="none" xmlns="http://www.w3.org/2000/svg">
<path d="M13.387 19.8088C13.2166 19.6313 13.0586 19.4424 12.9142 19.2434C12.5639 18.7684 12.2392 18.2708 11.9202 17.7704L10.3536 15.2683C9.75545 14.3919 9.43929 13.6116 9.43929 12.984C9.43929 12.3563 9.79533 11.5364 10.5103 11.3583C10.4104 9.85917 10.3895 8.35587 10.4476 6.85456C10.4795 6.50577 10.5424 6.16045 10.6356 5.82263C11.0723 4.40359 12.0285 3.19829 13.3158 2.44412C13.7703 2.15883 14.2569 1.92731 14.7656 1.75428C15.6799 1.41502 15.2384 0.0353389 16.2354 0.00141238C18.6108 -0.0607862 22.5016 1.9437 23.9998 3.56935C24.9651 4.62521 25.5133 5.99175 25.5436 7.41718L25.4496 11.5138C25.6562 11.565 25.8448 11.6709 25.9953 11.8203C26.1458 11.9697 26.2526 12.157 26.3041 12.362C26.4294 12.8624 26.3041 13.5494 25.8626 14.522C25.8626 14.5531 25.8313 14.5531 25.8313 14.5842L24.0312 17.5301C23.621 18.1973 23.1995 18.873 22.7266 19.5091C22.157 20.2527 21.7041 20.1198 22.1826 20.8323C22.8027 21.6421 23.6135 22.2887 24.5439 22.7152C24.4295 22.728 24.3163 22.7487 24.2049 22.7774C23.9316 22.843 23.6745 22.963 23.4492 23.1302C23.224 23.2974 23.0353 23.5082 22.8947 23.75L22.2481 24.8611C22.1098 25.1027 22.0199 25.3686 21.9832 25.6442C21.9493 25.9126 21.9667 26.1851 22.0345 26.4471V26.498C22.1066 26.7612 22.2294 27.0079 22.3962 27.2246L22.4133 27.25C22.3678 27.2783 22.3222 27.3094 22.2766 27.3433C22.044 27.5146 21.8499 27.7322 21.7069 27.9823C21.5621 28.2297 21.47 28.5039 21.4364 28.788C21.4057 29.0588 21.425 29.3328 21.4933 29.5966L21.8209 30.8321C21.8467 30.9295 21.882 31.0242 21.9263 31.1148C21.999 31.2897 22.0947 31.4542 22.2111 31.6039C22.2396 31.6407 22.2709 31.6746 22.3022 31.7085C22.3336 31.7425 22.4076 31.816 22.4618 31.8669H0C0 22.5371 10.1115 25.4915 13.5522 20.7984C13.9482 20.2103 13.8371 20.2668 13.3956 19.7947L13.387 19.8088ZM34.6753 26.5037C34.6574 26.4327 34.6251 26.366 34.5806 26.3077C34.5361 26.2494 34.4801 26.2007 34.4161 26.1644C34.3532 26.1275 34.2832 26.1039 34.2107 26.0952C34.1381 26.0864 34.0645 26.0927 33.9945 26.1135L33.1771 26.3284C33.0878 26.1587 32.9869 25.9953 32.8752 25.8393C32.7622 25.6828 32.6405 25.5327 32.5106 25.3897L32.9777 24.5981C33.0155 24.5361 33.0404 24.4672 33.0507 24.3955C33.061 24.3237 33.0565 24.2507 33.0376 24.1807C33.0187 24.1107 32.9858 24.0452 32.9407 23.9882C32.8957 23.9312 32.8395 23.8838 32.7755 23.8489L31.7786 23.2835C31.7166 23.2469 31.6479 23.223 31.5764 23.2133C31.505 23.2036 31.4323 23.2082 31.3627 23.2269C31.2919 23.2447 31.2255 23.2766 31.1677 23.3209C31.1099 23.3652 31.0619 23.4207 31.0266 23.4842L30.6051 24.2051C30.4185 24.149 30.2282 24.1065 30.0354 24.0779C29.8469 24.0476 29.6566 24.0296 29.4657 24.0242L29.2179 23.1336C29.2025 23.0643 29.1724 22.9989 29.1297 22.9419C29.087 22.8849 29.0326 22.8375 28.9701 22.8028C28.9068 22.7656 28.8365 22.7416 28.7635 22.7323C28.6905 22.7231 28.6164 22.7288 28.5457 22.7491L27.4434 23.0318C27.3723 23.0497 27.3056 23.0817 27.2473 23.1259C27.1891 23.1702 27.1405 23.2257 27.1045 23.2891C27.0671 23.3531 27.0437 23.4242 27.0358 23.4977C27.028 23.5713 27.0358 23.6457 27.0589 23.716L27.2782 24.5274C27.1027 24.6143 26.9341 24.7145 26.7741 24.8271C26.6147 24.9382 26.4625 25.059 26.3184 25.189L25.5237 24.731C25.4613 24.6942 25.392 24.6702 25.3201 24.6605C25.2482 24.6508 25.175 24.6555 25.105 24.6745C25.0338 24.6922 24.9671 24.7245 24.9093 24.7693C24.8514 24.8141 24.8036 24.8704 24.7689 24.9346L24.1992 25.9241C24.1629 25.9853 24.1394 26.0532 24.1301 26.1236C24.1208 26.194 24.1259 26.2656 24.1451 26.334C24.1613 26.405 24.1925 26.4717 24.2367 26.5297C24.2809 26.5877 24.3371 26.6357 24.4014 26.6705L25.1278 27.0889C25.0726 27.2744 25.0298 27.4633 24.9996 27.6543C24.9682 27.8414 24.9491 28.0303 24.9426 28.2198L24.0511 28.4544C23.9803 28.4694 23.9136 28.4993 23.8556 28.5423C23.7976 28.5852 23.7496 28.6401 23.715 28.7032C23.678 28.7657 23.6541 28.835 23.6448 28.9069C23.6355 28.9789 23.641 29.0519 23.6609 29.1217L23.9457 30.2243C23.9652 30.2935 23.9984 30.3582 24.0434 30.4145C24.0884 30.4708 24.1443 30.5176 24.2078 30.5522C24.2693 30.5899 24.3378 30.6148 24.4093 30.6255C24.4808 30.6362 24.5537 30.6324 24.6236 30.6144L25.4468 30.3911C25.5361 30.5607 25.6369 30.7242 25.7487 30.8802C25.8626 31.0357 25.9851 31.1855 26.1133 31.3297L25.6547 32.1185C25.6173 32.1803 25.5927 32.2489 25.5824 32.3203C25.5722 32.3917 25.5764 32.4644 25.5949 32.5341C25.6132 32.6045 25.646 32.6705 25.691 32.7279C25.7361 32.7853 25.7926 32.8329 25.8569 32.8677L26.8538 33.4331C26.9817 33.5015 27.1311 33.5188 27.2714 33.4815C27.4117 33.4442 27.5323 33.3551 27.6086 33.2324L28.0387 32.5143C28.2252 32.5713 28.4156 32.6148 28.6084 32.6444C28.797 32.6742 28.9872 32.693 29.1781 32.7009L29.4145 33.5858C29.4305 33.6564 29.4614 33.7229 29.505 33.7809C29.5487 33.8389 29.6042 33.887 29.668 33.9223C29.7301 33.9598 29.7997 33.9835 29.872 33.9918C29.9443 34.0001 30.0175 33.9928 30.0867 33.9703L31.2004 33.6876C31.3403 33.6461 31.4587 33.5528 31.5314 33.4271C31.604 33.3013 31.6252 33.1527 31.5906 33.0119L31.3656 32.1977C31.5369 32.1097 31.7015 32.0095 31.8583 31.898C32.0155 31.7852 32.1666 31.6644 32.3112 31.5361L33.1059 31.9913C33.1685 32.028 33.2379 32.052 33.31 32.0618C33.3821 32.0716 33.4555 32.0671 33.5258 32.0484C33.5961 32.0297 33.6619 31.9972 33.7194 31.953C33.7769 31.9087 33.8249 31.8535 33.8607 31.7905L34.4303 30.801C34.4992 30.6741 34.5166 30.5258 34.479 30.3866C34.4415 30.2473 34.3517 30.1276 34.2281 30.0518L33.5018 29.6362C33.5545 29.4503 33.5963 29.2615 33.6271 29.0708C33.6595 28.8838 33.6785 28.6949 33.6841 28.5053L34.5784 28.2622C34.649 28.2467 34.7155 28.2166 34.7735 28.1737C34.8314 28.1308 34.8795 28.0761 34.9146 28.0134C34.9522 27.9511 34.9764 27.8818 34.9857 27.8098C34.995 27.7378 34.9892 27.6646 34.9687 27.595L34.6838 26.5008L34.6753 26.5037ZM30.4427 26.4217C30.7038 26.5716 30.9323 26.7715 31.1149 27.0097C31.2928 27.239 31.4234 27.5009 31.4991 27.7803C31.5749 28.0597 31.5943 28.3513 31.5564 28.6382C31.5005 29.0805 31.3141 29.4966 31.0207 29.8341C30.7272 30.1716 30.3399 30.4156 29.9072 30.5353C29.6287 30.6084 29.3386 30.6276 29.0527 30.5918C28.7533 30.5528 28.4646 30.4556 28.2031 30.3057C27.9416 30.1558 27.7125 29.9561 27.5289 29.7182C27.1716 29.2553 27.0139 28.6707 27.0902 28.0925C27.1268 27.7955 27.2225 27.5086 27.3716 27.2484C27.5207 26.9883 27.7204 26.7601 27.959 26.5772C28.19 26.4006 28.4538 26.271 28.7353 26.1958C29.0168 26.1206 29.3105 26.1013 29.5996 26.1389C29.9004 26.1765 30.1908 26.2726 30.4541 26.4217H30.4427Z" fill="#333333"/>
<mask id="mask0_100_2246" style="mask-type:alpha" maskUnits="userSpaceOnUse" x="0" y="0" width="35" height="34">
<path d="M13.387 19.8088C13.2166 19.6313 13.0586 19.4424 12.9142 19.2434C12.5639 18.7684 12.2392 18.2708 11.9202 17.7704L10.3536 15.2683C9.75545 14.3919 9.43929 13.6116 9.43929 12.984C9.43929 12.3563 9.79533 11.5364 10.5103 11.3583C10.4104 9.85917 10.3895 8.35587 10.4476 6.85456C10.4795 6.50577 10.5424 6.16045 10.6356 5.82263C11.0723 4.40359 12.0285 3.19829 13.3158 2.44412C13.7703 2.15883 14.2569 1.92731 14.7656 1.75428C15.6799 1.41502 15.2384 0.0353389 16.2354 0.00141238C18.6108 -0.0607862 22.5016 1.9437 23.9998 3.56935C24.9651 4.62521 25.5133 5.99175 25.5436 7.41718L25.4496 11.5138C25.6562 11.565 25.8448 11.6709 25.9953 11.8203C26.1458 11.9697 26.2526 12.157 26.3041 12.362C26.4294 12.8624 26.3041 13.5494 25.8626 14.522C25.8626 14.5531 25.8313 14.5531 25.8313 14.5842L24.0312 17.5301C23.621 18.1973 23.1995 18.873 22.7266 19.5091C22.157 20.2527 21.7041 20.1198 22.1826 20.8323C22.8027 21.6421 23.6135 22.2887 24.5439 22.7152C24.4295 22.728 24.3163 22.7487 24.2049 22.7774C23.9316 22.843 23.6745 22.963 23.4492 23.1302C23.224 23.2974 23.0353 23.5082 22.8947 23.75L22.2481 24.8611C22.1098 25.1027 22.0199 25.3686 21.9832 25.6442C21.9493 25.9126 21.9667 26.1851 22.0345 26.4471V26.498C22.1066 26.7612 22.2294 27.0079 22.3962 27.2246L22.4133 27.25C22.3678 27.2783 22.3222 27.3094 22.2766 27.3433C22.044 27.5146 21.8499 27.7322 21.7069 27.9823C21.5621 28.2297 21.47 28.5039 21.4364 28.788C21.4057 29.0588 21.425 29.3328 21.4933 29.5966L21.8209 30.8321C21.8467 30.9295 21.882 31.0242 21.9263 31.1148C21.999 31.2897 22.0947 31.4542 22.2111 31.6039C22.2396 31.6407 22.2709 31.6746 22.3022 31.7085C22.3336 31.7425 22.4076 31.816 22.4618 31.8669H0C0 22.5371 10.1115 25.4915 13.5522 20.7984C13.9482 20.2103 13.8371 20.2668 13.3956 19.7947L13.387 19.8088ZM34.6753 26.5037C34.6574 26.4327 34.6251 26.366 34.5806 26.3077C34.5361 26.2494 34.4801 26.2007 34.4161 26.1644C34.3532 26.1275 34.2832 26.1039 34.2107 26.0952C34.1381 26.0864 34.0645 26.0927 33.9945 26.1135L33.1771 26.3284C33.0878 26.1587 32.9869 25.9953 32.8752 25.8393C32.7622 25.6828 32.6405 25.5327 32.5106 25.3897L32.9777 24.5981C33.0155 24.5361 33.0404 24.4672 33.0507 24.3955C33.061 24.3237 33.0565 24.2507 33.0376 24.1807C33.0187 24.1107 32.9858 24.0452 32.9407 23.9882C32.8957 23.9312 32.8395 23.8838 32.7755 23.8489L31.7786 23.2835C31.7166 23.2469 31.6479 23.223 31.5764 23.2133C31.505 23.2036 31.4323 23.2082 31.3627 23.2269C31.2919 23.2447 31.2255 23.2766 31.1677 23.3209C31.1099 23.3652 31.0619 23.4207 31.0266 23.4842L30.6051 24.2051C30.4185 24.149 30.2282 24.1065 30.0354 24.0779C29.8469 24.0476 29.6566 24.0296 29.4657 24.0242L29.2179 23.1336C29.2025 23.0643 29.1724 22.9989 29.1297 22.9419C29.087 22.8849 29.0326 22.8375 28.9701 22.8028C28.9068 22.7656 28.8365 22.7416 28.7635 22.7323C28.6905 22.7231 28.6164 22.7288 28.5457 22.7491L27.4434 23.0318C27.3723 23.0497 27.3056 23.0817 27.2473 23.1259C27.1891 23.1702 27.1405 23.2257 27.1045 23.2891C27.0671 23.3531 27.0437 23.4242 27.0358 23.4977C27.028 23.5713 27.0358 23.6457 27.0589 23.716L27.2782 24.5274C27.1027 24.6143 26.9341 24.7145 26.7741 24.8271C26.6147 24.9382 26.4625 25.059 26.3184 25.189L25.5237 24.731C25.4613 24.6942 25.392 24.6702 25.3201 24.6605C25.2482 24.6508 25.175 24.6555 25.105 24.6745C25.0338 24.6922 24.9671 24.7245 24.9093 24.7693C24.8514 24.8141 24.8036 24.8704 24.7689 24.9346L24.1992 25.9241C24.1629 25.9853 24.1394 26.0532 24.1301 26.1236C24.1208 26.194 24.1259 26.2656 24.1451 26.334C24.1613 26.405 24.1925 26.4717 24.2367 26.5297C24.2809 26.5877 24.3371 26.6357 24.4014 26.6705L25.1278 27.0889C25.0726 27.2744 25.0298 27.4633 24.9996 27.6543C24.9682 27.8414 24.9491 28.0303 24.9426 28.2198L24.0511 28.4544C23.9803 28.4694 23.9136 28.4993 23.8556 28.5423C23.7976 28.5852 23.7496 28.6401 23.715 28.7032C23.678 28.7657 23.6541 28.835 23.6448 28.9069C23.6355 28.9789 23.641 29.0519 23.6609 29.1217L23.9457 30.2243C23.9652 30.2935 23.9984 30.3582 24.0434 30.4145C24.0884 30.4708 24.1443 30.5176 24.2078 30.5522C24.2693 30.5899 24.3378 30.6148 24.4093 30.6255C24.4808 30.6362 24.5537 30.6324 24.6236 30.6144L25.4468 30.3911C25.5361 30.5607 25.6369 30.7242 25.7487 30.8802C25.8626 31.0357 25.9851 31.1855 26.1133 31.3297L25.6547 32.1185C25.6173 32.1803 25.5927 32.2489 25.5824 32.3203C25.5722 32.3917 25.5764 32.4644 25.5949 32.5341C25.6132 32.6045 25.646 32.6705 25.691 32.7279C25.7361 32.7853 25.7926 32.8329 25.8569 32.8677L26.8538 33.4331C26.9817 33.5015 27.1311 33.5188 27.2714 33.4815C27.4117 33.4442 27.5323 33.3551 27.6086 33.2324L28.0387 32.5143C28.2252 32.5713 28.4156 32.6148 28.6084 32.6444C28.797 32.6742 28.9872 32.693 29.1781 32.7009L29.4145 33.5858C29.4305 33.6564 29.4614 33.7229 29.505 33.7809C29.5487 33.8389 29.6042 33.887 29.668 33.9223C29.7301 33.9598 29.7997 33.9835 29.872 33.9918C29.9443 34.0001 30.0175 33.9928 30.0867 33.9703L31.2004 33.6876C31.3403 33.6461 31.4587 33.5528 31.5314 33.4271C31.604 33.3013 31.6252 33.1527 31.5906 33.0119L31.3656 32.1977C31.5369 32.1097 31.7015 32.0095 31.8583 31.898C32.0155 31.7852 32.1666 31.6644 32.3112 31.5361L33.1059 31.9913C33.1685 32.028 33.2379 32.052 33.31 32.0618C33.3821 32.0716 33.4555 32.0671 33.5258 32.0484C33.5961 32.0297 33.6619 31.9972 33.7194 31.953C33.7769 31.9087 33.8249 31.8535 33.8607 31.7905L34.4303 30.801C34.4992 30.6741 34.5166 30.5258 34.479 30.3866C34.4415 30.2473 34.3517 30.1276 34.2281 30.0518L33.5018 29.6362C33.5545 29.4503 33.5963 29.2615 33.6271 29.0708C33.6595 28.8838 33.6785 28.6949 33.6841 28.5053L34.5784 28.2622C34.649 28.2467 34.7155 28.2166 34.7735 28.1737C34.8314 28.1308 34.8795 28.0761 34.9146 28.0134C34.9522 27.9511 34.9764 27.8818 34.9857 27.8098C34.995 27.7378 34.9892 27.6646 34.9687 27.595L34.6838 26.5008L34.6753 26.5037ZM30.4427 26.4217C30.7038 26.5716 30.9323 26.7715 31.1149 27.0097C31.2928 27.239 31.4234 27.5009 31.4991 27.7803C31.5749 28.0597 31.5943 28.3513 31.5564 28.6382C31.5005 29.0805 31.3141 29.4966 31.0207 29.8341C30.7272 30.1716 30.3399 30.4156 29.9072 30.5353C29.6287 30.6084 29.3386 30.6276 29.0527 30.5918C28.7533 30.5528 28.4646 30.4556 28.2031 30.3057C27.9416 30.1558 27.7125 29.9561 27.5289 29.7182C27.1716 29.2553 27.0139 28.6707 27.0902 28.0925C27.1268 27.7955 27.2225 27.5086 27.3716 27.2484C27.5207 26.9883 27.7204 26.7601 27.959 26.5772C28.19 26.4006 28.4538 26.271 28.7353 26.1958C29.0168 26.1206 29.3105 26.1013 29.5996 26.1389C29.9004 26.1765 30.1908 26.2726 30.4541 26.4217H30.4427Z" fill="black"/>
</mask>
<g mask="url(#mask0_100_2246)">
<circle cx="30" cy="28.0017" r="7" fill="#8E8E8E"/>
</g>
</svg>
