<svg width="16" height="16" viewBox="0 0 16 16" fill="none" xmlns="http://www.w3.org/2000/svg">
<path d="M7 14C3.14 14 0 10.86 0 7C0 3.14 3.14 0 7 0C10.86 0 14 3.14 14 7C14 10.86 10.86 14 7 14ZM7 2C4.243 2 2 4.243 2 7C2 9.757 4.243 12 7 12C9.757 12 12 9.757 12 7C12 4.243 9.757 2 7 2Z" fill="#A3ACB9"/>
<path d="M15.707 14.293L13.314 11.9C12.9035 12.4285 12.4285 12.9035 11.9 13.314L14.293 15.707C14.3856 15.8002 14.4958 15.8741 14.6171 15.9246C14.7385 15.9751 14.8686 16.001 15 16.001C15.1314 16.001 15.2615 15.9751 15.3828 15.9246C15.5042 15.8741 15.6143 15.8002 15.707 15.707C15.7999 15.6142 15.8737 15.504 15.924 15.3827C15.9743 15.2614 16.0002 15.1313 16.0002 15C16.0002 14.8687 15.9743 14.7386 15.924 14.6173C15.8737 14.496 15.7999 14.3858 15.707 14.293Z" fill="#A3ACB9"/>
</svg>
