<svg width="44" height="44" viewBox="0 0 44 44" fill="none" xmlns="http://www.w3.org/2000/svg">
<path fill-rule="evenodd" clip-rule="evenodd" d="M39.1875 30.1369L39.1875 30.141C39.1875 30.141 39.1825 30.8814 38.8081 31.5206C38.8081 31.5206 38.4327 32.1616 37.7868 32.5283L23.3471 40.6936C23.3471 40.6936 22.7276 41.0514 22 41.0514C22 41.0514 21.2724 41.0514 20.6422 40.6875L6.21537 32.5296C6.21537 32.5296 5.5673 32.1616 5.19191 31.5206C5.19191 31.5206 4.81651 30.8797 4.81252 30.137L4.8125 13.8702C4.8125 13.8702 4.81651 13.12 5.19191 12.4791C5.19191 12.4791 5.56731 11.8382 6.21319 11.4714L20.6529 3.30611C20.6529 3.30611 21.2724 2.94839 22 2.94839C22 2.94839 22.7276 2.94839 23.3578 3.31222L37.7846 11.4702C37.7846 11.4702 38.4327 11.8382 38.8081 12.4791C38.8081 12.4791 39.1835 13.12 39.1875 13.8628L39.1875 30.1296L39.1875 30.1369ZM36.4375 13.8776L36.4375 30.1222C36.4375 30.1222 36.4373 30.1271 36.4352 30.1308C36.4352 30.1308 36.4346 30.1318 36.4335 30.1331C36.4324 30.1344 36.4308 30.1359 36.4288 30.137L21.9999 38.2962L7.569 30.1358C7.569 30.1358 7.56717 30.1348 7.56484 30.1308C7.56484 30.1308 7.5625 30.1268 7.56248 30.1222L7.5625 13.8702C7.5625 13.8702 7.56336 13.8715 7.56484 13.869C7.56484 13.869 7.56717 13.865 7.57118 13.8627L22.0001 5.70354L36.431 13.864C36.431 13.864 36.4328 13.865 36.4352 13.869C36.4352 13.869 36.4375 13.873 36.4375 13.8776Z" fill="#FE764B"/>
<path fill-rule="evenodd" clip-rule="evenodd" d="M22 14.4375C22 14.4375 25.1325 14.4375 27.3475 16.6525C27.3475 16.6525 29.5625 18.8675 29.5625 22C29.5625 22 29.5625 25.1325 27.3475 27.3475C27.3475 27.3475 25.1325 29.5625 22 29.5625C22 29.5625 18.8675 29.5625 16.6525 27.3475C16.6525 27.3475 14.4375 25.1325 14.4375 22C14.4375 22 14.4375 18.8675 16.6525 16.6525C16.6525 16.6525 18.8675 14.4375 22 14.4375ZM22 17.1875C22 17.1875 20.0066 17.1875 18.597 18.597C18.597 18.597 17.1875 20.0066 17.1875 22C17.1875 22 17.1875 23.9934 18.597 25.4029C18.597 25.4029 20.0066 26.8125 22 26.8125C22 26.8125 23.9934 26.8125 25.403 25.4029C25.403 25.4029 26.8125 23.9934 26.8125 22C26.8125 22 26.8125 20.0066 25.403 18.597C25.403 18.597 23.9934 17.1875 22 17.1875Z" fill="#FE764B"/>
</svg>
