<svg width="42" height="42" viewBox="0 0 42 42" fill="none" xmlns="http://www.w3.org/2000/svg">
<path d="M21 3.5C11.375 3.5 3.5 11.375 3.5 21C3.5 30.625 11.375 38.5 21 38.5C30.625 38.5 38.5 30.625 38.5 21C38.5 11.375 30.625 3.5 21 3.5ZM21 35C13.3 35 7 28.7 7 21C7 13.3 13.3 7 21 7C28.7 7 35 13.3 35 21C35 28.7 28.7 35 21 35Z" fill="#393F93"/>
<path d="M21 16.975C19.95 16.975 19.25 17.675 19.25 18.725V28.175C19.25 29.225 19.95 29.925 21 29.925C22.05 29.925 22.75 29.225 22.75 28.175V18.725C22.75 17.85 22.05 16.975 21 16.975Z" fill="#393F93"/>
<path d="M21 15.75C21.9665 15.75 22.75 14.9665 22.75 14C22.75 13.0335 21.9665 12.25 21 12.25C20.0335 12.25 19.25 13.0335 19.25 14C19.25 14.9665 20.0335 15.75 21 15.75Z" fill="#393F93"/>
</svg>
