<svg width="25" height="24" viewBox="0 0 25 24" fill="none" xmlns="http://www.w3.org/2000/svg">
<path fill-rule="evenodd" clip-rule="evenodd" d="M13.0895 15.2521L8.08099 21.0553C8.06868 21.0695 8.05586 21.0833 8.04254 21.0966C8.04254 21.0966 7.13918 22 5.86162 22C5.86162 22 4.58407 22 3.68071 21.0966C3.68071 21.0966 2.77734 20.1933 2.77734 18.9157C2.77734 18.9157 2.77734 17.6382 3.68071 16.7348C3.69403 16.7215 3.70783 16.7087 3.72208 16.6964L9.5252 11.6878C9.5252 11.6878 8.76622 9.9951 8.9807 8.10787C8.9807 8.10787 9.23137 5.90219 10.7182 4.25381C10.7182 4.25381 12.2051 2.60543 14.3733 2.12941C14.3733 2.12941 16.5415 1.65338 18.5821 2.52732C18.9731 2.69476 19.1543 3.14742 18.9869 3.53837C18.9481 3.62877 18.8925 3.71092 18.8228 3.78037L15.0726 7.52164L15.4386 9.33871L17.2557 9.70469L20.997 5.9545C21.1412 5.80991 21.337 5.72854 21.5412 5.7283C21.7455 5.72806 21.9414 5.80895 22.086 5.9532C22.1556 6.02265 22.2113 6.1048 22.25 6.1952C22.25 6.1952 23.124 8.23581 22.6479 10.404C22.6479 10.404 22.1719 12.5723 20.5235 14.0591C20.5235 14.0591 18.8752 15.546 16.6695 15.7966C16.6695 15.7966 14.7822 16.0111 13.0895 15.2521ZM16.4956 14.2664C16.4956 14.2664 14.7813 14.4612 13.2734 13.6229L13.2724 13.6223C13.094 13.5231 12.8833 13.4988 12.6869 13.5548C12.5425 13.596 12.4133 13.6785 12.3152 13.7922L6.93516 20.0257C6.93516 20.0257 6.48832 20.4599 5.86162 20.4599C5.86162 20.4599 5.22202 20.4599 4.76975 20.0076C4.76975 20.0076 4.31748 19.5553 4.31748 18.9157C4.31748 18.9157 4.31748 18.289 4.75168 17.8422L10.9852 12.4622C11.2615 12.2237 11.3324 11.8239 11.155 11.5049C11.155 11.5049 10.3161 9.99663 10.511 8.28178C10.511 8.28178 10.7059 6.56694 11.8618 5.28537C11.8618 5.28537 13.0178 4.00381 14.7036 3.63372C14.7036 3.63372 15.7879 3.39566 16.8311 3.59185L13.6922 6.72327C13.5095 6.9056 13.4302 7.1674 13.4812 7.42048L14.0299 10.1446C14.0911 10.4486 14.3287 10.6862 14.6327 10.7475L17.3569 11.2961C17.6099 11.3471 17.8717 11.2679 18.0541 11.0851L21.1855 7.94621C21.1855 7.94621 21.3817 8.98947 21.1436 10.0738C21.1436 10.0738 20.7735 11.7595 19.492 12.9155C19.492 12.9155 18.2104 14.0715 16.4956 14.2664Z" fill="#717578"/>
</svg>
