<svg width="28" height="28" viewBox="0 0 28 28" fill="none" xmlns="http://www.w3.org/2000/svg">
<g clip-path="url(#clip0_100_2232)">
<path d="M12.9459 6.29597C14.7028 6.86644 16.1198 6.22336 17.4113 5.09797C17.5629 4.96313 17.7721 4.88534 17.9603 4.79717C18.3629 4.60528 18.7237 4.6727 18.9433 5.07204C19.2727 5.66844 19.6021 6.27004 19.8636 6.89756C20.1355 7.5562 20.5747 7.98665 21.2283 8.26152C21.84 8.51564 22.4361 8.82681 23.027 9.13798C23.508 9.3921 23.5865 9.8018 23.3198 10.2478C23.027 10.7353 22.7446 11.2435 22.3682 11.6636C21.6936 12.426 21.6152 13.2765 21.7616 14.2152C21.84 14.7183 21.8296 15.2369 21.84 15.7451C21.8505 16.1911 21.6257 16.4919 21.1603 16.4919C20.5119 16.4919 19.8583 16.4816 19.2204 16.3986C18.4623 16.2949 17.7982 16.3882 17.176 16.8809C16.6688 17.2802 16.1198 17.6381 15.5603 17.9544C15.0008 18.2708 14.6923 18.1878 14.3734 17.6277C14.0231 17.0209 13.7355 16.3778 13.4479 15.7399C13.2178 15.2265 12.8623 14.8687 12.3499 14.6405C11.7067 14.3552 11.0583 14.07 10.4466 13.7225C9.86096 13.3906 9.78253 13.0794 10.1224 12.4986C10.4361 11.9592 10.7865 11.4303 11.1786 10.9428C11.6701 10.3308 11.8008 9.67733 11.6701 8.92016C11.576 8.3808 11.5342 7.82588 11.5342 7.27615C11.5394 6.5086 11.7747 6.31153 12.5433 6.29597C12.6793 6.29597 12.81 6.29597 12.9459 6.29597Z" fill="#8E8E8E"/>
<path d="M2.05492 28.0001C1.08237 27.9171 0.49675 27.5852 0.172567 26.8747C-0.151616 26.1694 -0.020897 25.433 0.58041 24.8366C2.4157 23.0007 4.26146 21.1803 6.10198 19.3496C7.5242 17.939 8.95165 16.5335 10.3634 15.1125C10.6092 14.8636 10.7869 14.8377 11.1425 14.9466C12.2196 15.2733 12.8732 15.9475 13.1347 17.0055C13.1765 17.187 13.1608 17.4722 13.0458 17.5863C9.74119 20.8899 6.42616 24.1883 3.09021 27.4556C2.78695 27.7512 2.3059 27.8705 2.06538 27.9949L2.05492 28.0001Z" fill="#333333"/>
<path d="M13.7409 0C13.9867 0.274866 14.1854 0.394147 14.2376 0.560104C14.6925 2.06409 15.1422 3.57325 15.5396 5.09798C15.5814 5.25875 15.3095 5.60622 15.1161 5.67883C14.9697 5.73588 14.5618 5.52843 14.52 5.37285C14.1017 3.83775 13.72 2.28709 13.3749 0.736433C13.3383 0.56529 13.5736 0.326727 13.7461 0H13.7409Z" fill="#8E8E8E"/>
<path d="M27.6233 14.7856C26.8495 14.5989 26.2011 14.4433 25.5527 14.2877C24.6795 14.0751 23.8115 13.8521 22.9383 13.6446C22.5619 13.5565 22.337 13.3802 22.4468 12.9756C22.5462 12.5919 22.7919 12.4622 23.1841 12.5763C24.6481 13.0016 26.1174 13.4061 27.5762 13.8573C27.754 13.9143 27.9475 14.184 27.9684 14.3707C27.9841 14.5055 27.7227 14.6715 27.6233 14.7856Z" fill="#8E8E8E"/>
<path d="M5.82506 8.0437C7.50872 8.45859 9.06689 8.832 10.6146 9.22614C10.9649 9.31431 11.059 9.63066 10.9022 9.90553C10.7976 10.087 10.4787 10.31 10.3218 10.2686C8.79499 9.86404 7.27342 9.41284 5.76754 8.9409C5.60545 8.88904 5.44336 8.58306 5.44336 8.39636C5.44336 8.26152 5.72571 8.13187 5.82506 8.04889V8.0437Z" fill="#8E8E8E"/>
<path d="M21.2754 7.49397C21.1029 7.32801 20.8571 7.19317 20.7891 6.99091C20.7369 6.83533 20.8414 6.55009 20.9721 6.41525C21.678 5.69956 22.4205 5.0098 23.1473 4.31486C23.5186 3.9622 23.8689 3.57324 24.2767 3.27244C24.4336 3.15316 24.7369 3.22577 24.9721 3.2154C24.9565 3.4384 25.0297 3.7392 24.9094 3.86885C23.8532 5.0098 22.7604 6.12482 21.6728 7.24503C21.5839 7.3332 21.4532 7.38506 21.2702 7.49397H21.2754Z" fill="#8E8E8E"/>
<path d="M20.1098 22.2434C19.9948 22.3471 19.8431 22.5857 19.6863 22.5909C19.5242 22.5961 19.2523 22.4094 19.1948 22.2486C18.9176 21.4603 18.698 20.6565 18.4575 19.8578C18.2536 19.1888 18.0497 18.5198 17.851 17.8456C17.7516 17.5033 17.8353 17.2544 18.2118 17.1351C18.583 17.0158 18.8288 17.1506 18.9177 17.4981C19.3046 19.0021 19.6758 20.5113 20.0523 22.0152C20.0627 22.0515 20.0732 22.0878 20.115 22.2382L20.1098 22.2434Z" fill="#8E8E8E"/>
<path d="M10.6929 6.02101C10.5203 5.90173 10.3791 5.83431 10.2746 5.73577C9.68372 5.13937 9.10333 4.53259 8.51771 3.93618C8.2981 3.70799 8.13078 3.41757 8.44451 3.22049C8.61183 3.11677 9.00921 3.18419 9.17653 3.32422C9.80399 3.8532 10.3896 4.42368 10.9595 5.0149C11.0903 5.14974 11.1635 5.4246 11.1216 5.60612C11.085 5.7617 10.8497 5.8758 10.6876 6.0262L10.6929 6.02101Z" fill="#8E8E8E"/>
<path d="M18.3477 3.31406C18.6562 2.28202 18.9071 1.37445 19.2104 0.482428C19.2575 0.342402 19.5921 0.176446 19.7333 0.223121C19.8797 0.269796 20.0627 0.575779 20.0365 0.726177C19.8535 1.62857 19.6339 2.53096 19.3725 3.4126C19.3307 3.55781 18.9856 3.70821 18.8026 3.68747C18.6248 3.66672 18.4784 3.42297 18.3529 3.31406H18.3477Z" fill="#8E8E8E"/>
<path d="M25.1085 19.277C25.0928 19.6452 24.7006 19.8942 24.4601 19.6815C23.7176 19.0281 23.0013 18.3383 22.3059 17.633C22.217 17.5448 22.2483 17.1922 22.3529 17.0937C22.4836 16.9692 22.8497 16.8655 22.9333 16.9381C23.6653 17.633 24.3555 18.3643 25.0562 19.0903C25.1032 19.137 25.1032 19.2303 25.1137 19.2718L25.1085 19.277Z" fill="#8E8E8E"/>
<path d="M13.3021 22.2227C13.5688 21.1907 13.7779 20.2675 14.0603 19.3703C14.1021 19.2303 14.4733 19.0799 14.6407 19.1266C14.8028 19.1681 15.0276 19.4948 14.991 19.64C14.7766 20.5372 14.5099 21.4241 14.2119 22.2953C14.1596 22.4457 13.8564 22.6065 13.689 22.5858C13.5322 22.5702 13.4015 22.3213 13.2969 22.2227H13.3021Z" fill="#8E8E8E"/>
<path d="M5.78775 14.7857C5.67795 14.6768 5.45311 14.5627 5.4322 14.4123C5.40605 14.2567 5.53154 13.9559 5.65703 13.9092C6.57206 13.6032 7.50278 13.3232 8.43873 13.0898C8.56945 13.0587 8.8884 13.2869 8.91978 13.4321C8.95638 13.6136 8.82566 13.9818 8.68971 14.0233C7.76422 14.3034 6.82305 14.5212 5.79298 14.7857H5.78775Z" fill="#8E8E8E"/>
<path d="M24.8526 9.78632C24.7375 9.65667 24.5022 9.51145 24.4918 9.35068C24.4813 9.1588 24.6173 8.81651 24.7584 8.77502C25.6526 8.50534 26.5624 8.28234 27.4774 8.09564C27.629 8.06452 27.9062 8.25641 27.9846 8.41199C28.0369 8.5209 27.88 8.858 27.7545 8.89949C26.8343 9.21066 25.8983 9.47515 24.8473 9.78632H24.8526Z" fill="#8E8E8E"/>
</g>
<defs>
<clipPath id="clip0_100_2232">
<rect width="28" height="28" fill="white"/>
</clipPath>
</defs>
</svg>
