<svg width="56" height="56" viewBox="0 0 56 56" fill="none" xmlns="http://www.w3.org/2000/svg">
<g clip-path="url(#clip0_1_1065)">
<path d="M16.3335 42C13.7668 42 11.6902 44.1 11.6902 46.6667C11.6902 49.2333 13.7668 51.3333 16.3335 51.3333C18.9002 51.3333 21.0002 49.2333 21.0002 46.6667C21.0002 44.1 18.9002 42 16.3335 42ZM2.3335 6.99999C2.3335 8.28332 3.3835 9.33332 4.66683 9.33332H7.00016L15.4002 27.0433L12.2502 32.7367C10.5468 35.8633 12.7868 39.6667 16.3335 39.6667H42.0002C43.2835 39.6667 44.3335 38.6167 44.3335 37.3333C44.3335 36.05 43.2835 35 42.0002 35H16.3335L18.9002 30.3333H36.2835C38.0335 30.3333 39.5735 29.3767 40.3668 27.93L48.7202 12.7867C49.5835 11.2467 48.4635 9.33332 46.6902 9.33332H12.1568L10.5935 5.99666C10.2202 5.17999 9.38016 4.66666 8.4935 4.66666H4.66683C3.3835 4.66666 2.3335 5.71666 2.3335 6.99999ZM39.6668 42C37.1002 42 35.0235 44.1 35.0235 46.6667C35.0235 49.2333 37.1002 51.3333 39.6668 51.3333C42.2335 51.3333 44.3335 49.2333 44.3335 46.6667C44.3335 44.1 42.2335 42 39.6668 42Z" fill="#EC756C"/>
</g>
<defs>
<clipPath id="clip0_1_1065">
<rect width="56" height="56" fill="white"/>
</clipPath>
</defs>
</svg>
