<svg width="24" height="24" viewBox="0 0 24 24" fill="none" xmlns="http://www.w3.org/2000/svg">
<g clip-path="url(#clip0_314_2712)">
<rect width="24" height="24" fill="white"/>
<path d="M20.4062 10.3438H19.6875V8.90625C19.6875 6.80938 18.8545 4.7984 17.3718 3.31569C15.8891 1.83298 13.8781 1 11.7812 1C9.68438 1 7.6734 1.83298 6.19069 3.31569C4.70798 4.7984 3.875 6.80938 3.875 8.90625V10.3438H3.15625C2.58438 10.3438 2.03593 10.5709 1.63155 10.9753C1.22718 11.3797 1 11.9281 1 12.5V15.375C1 15.9469 1.22718 16.4953 1.63155 16.8997C2.03593 17.3041 2.58438 17.5312 3.15625 17.5312H3.875C3.875 18.1031 4.10218 18.6516 4.50655 19.0559C4.91093 19.4603 5.45938 19.6875 6.03125 19.6875C6.60312 19.6875 7.15157 19.4603 7.55595 19.0559C7.96032 18.6516 8.1875 18.1031 8.1875 17.5312V10.3438C8.18768 9.9987 8.10505 9.65864 7.94655 9.35214C7.78805 9.04565 7.55831 8.78167 7.27662 8.58238C6.99494 8.38308 6.66954 8.2543 6.32777 8.20685C5.98599 8.1594 5.63782 8.19467 5.3125 8.30969C5.46414 6.70669 6.20816 5.21787 7.39911 4.13425C8.59007 3.05064 10.1423 2.45014 11.7525 2.45014C13.3627 2.45014 14.9149 3.05064 16.1059 4.13425C17.2968 5.21787 18.0409 6.70669 18.1925 8.30969C17.8705 8.20593 17.5286 8.17939 17.1945 8.23222C16.8603 8.28504 16.5433 8.41574 16.269 8.61376C15.9948 8.81177 15.7709 9.07155 15.6156 9.37208C15.4603 9.67261 15.3779 10.0055 15.375 10.3438V17.5312C15.376 17.8757 15.4594 18.2149 15.6184 18.5205C15.7774 18.826 16.0073 19.089 16.2888 19.2875C16.5703 19.486 16.8953 19.6141 17.2365 19.6612C17.5777 19.7083 17.9253 19.6729 18.25 19.5581V21.125H16.0219C15.9191 21.6474 15.6978 22.1391 15.375 22.5625H18.9688C19.1594 22.5625 19.3422 22.4868 19.477 22.352C19.6118 22.2172 19.6875 22.0344 19.6875 21.8438V17.5312H20.4062C20.9781 17.5312 21.5266 17.3041 21.9309 16.8997C22.3353 16.4953 22.5625 15.9469 22.5625 15.375V12.5C22.5625 11.9281 22.3353 11.3797 21.9309 10.9753C21.5266 10.5709 20.9781 10.3438 20.4062 10.3438Z" fill="#333333"/>
<path d="M12.5 18.25H11.0625C10.4906 18.25 9.94218 18.4772 9.5378 18.8816C9.13343 19.2859 8.90625 19.8344 8.90625 20.4062C8.90625 20.9781 9.13343 21.5266 9.5378 21.9309C9.94218 22.3353 10.4906 22.5625 11.0625 22.5625H12.5C13.0719 22.5625 13.6203 22.3353 14.0247 21.9309C14.4291 21.5266 14.6562 20.9781 14.6562 20.4062C14.6562 19.8344 14.4291 19.2859 14.0247 18.8816C13.6203 18.4772 13.0719 18.25 12.5 18.25Z" fill="#959595"/>
</g>
<defs>
<clipPath id="clip0_314_2712">
<rect width="24" height="24" fill="white"/>
</clipPath>
</defs>
</svg>
