<svg width="24" height="24" viewBox="0 0 24 24" fill="none" xmlns="http://www.w3.org/2000/svg">
<path d="M6.25781 21.293C8.13571 21.7627 10.0674 21.9976 12 21.9971C13.9316 21.9971 15.8643 21.7627 17.7422 21.293C19.4942 20.8555 20.8555 19.4956 21.293 17.7427C22.2325 13.9859 22.2325 10.0142 21.293 6.2569C20.8555 4.5049 19.4942 3.1446 17.7422 2.7071C13.9873 1.7676 10.0147 1.7676 6.25781 2.7071C4.50591 3.1445 3.14451 4.5044 2.70701 6.2573C1.76751 10.0141 1.76751 13.9858 2.70701 17.7431C3.14451 19.4956 4.50591 20.8555 6.25781 21.293ZM4.64651 6.7422C4.90531 5.708 5.70801 4.9058 6.74221 4.6475C8.46191 4.2173 10.2314 4.0024 12 4.0024C13.7686 4.0024 15.5381 4.2172 17.2578 4.6474C18.292 4.9057 19.0947 5.7079 19.3535 6.7416C20.2129 10.1815 20.2129 13.8183 19.3535 17.2577C19.0947 18.2919 18.292 19.0941 17.2578 19.3524C13.8183 20.2128 10.1816 20.2128 6.74221 19.3524C5.70801 19.0941 4.90531 18.2919 4.64651 17.2582C3.78711 13.8184 3.78711 10.1816 4.64651 6.7422Z" fill="white"/>
<path d="M12 9C12.8284 9 13.5 8.32843 13.5 7.5C13.5 6.67157 12.8284 6 12 6C11.1716 6 10.5 6.67157 10.5 7.5C10.5 8.32843 11.1716 9 12 9Z" fill="white"/>
<path d="M10 17C10 17.5522 10.4473 18 11 18H13C13.5527 18 14 17.5522 14 17C14 16.4478 13.5527 16 13 16V12C13.5527 12 14 11.5522 14 11C14 10.4478 13.5527 10 13 10H11C10.4473 10 10 10.4478 10 11C10 11.5522 10.4473 12 11 12V16C10.4473 16 10 16.4478 10 17Z" fill="white"/>
</svg>
