<svg width="24" height="24" viewBox="0 0 24 24" fill="none" xmlns="http://www.w3.org/2000/svg">
<g clip-path="url(#clip0_314_2738)">
<rect width="24" height="24" fill="white"/>
<path d="M1 0C0.447716 0 0 0.447715 0 1V22.9C0 23.4523 0.447715 23.9 1 23.9H23C23.5523 23.9 24 23.4523 24 22.9V0.999999C24 0.447715 23.5523 0 23 0H1ZM6.55 2.65C6.55 2.37386 6.77386 2.15 7.05 2.15H7.1C7.37614 2.15 7.6 2.37386 7.6 2.65V2.65C7.6 2.92614 7.37614 3.15 7.1 3.15H7.05C6.77386 3.15 6.55 2.92614 6.55 2.65V2.65ZM4.3 2.65C4.3 2.37386 4.52386 2.15 4.8 2.15H4.85C5.12614 2.15 5.35 2.37386 5.35 2.65V2.65C5.35 2.92614 5.12614 3.15 4.85 3.15H4.8C4.52386 3.15 4.3 2.92614 4.3 2.65V2.65ZM2.05 2.65C2.05 2.37386 2.27386 2.15 2.55 2.15H2.6C2.87614 2.15 3.1 2.37386 3.1 2.65V2.65C3.1 2.92614 2.87614 3.15 2.6 3.15H2.55C2.27386 3.15 2.05 2.92614 2.05 2.65V2.65ZM23 21.9C23 22.4523 22.5523 22.9 22 22.9H2C1.44772 22.9 1 22.4523 1 21.9V6.3C1 5.74772 1.44772 5.3 2 5.3H22C22.5523 5.3 23 5.74772 23 6.3V21.9Z" fill="#333333"/>
<path d="M2.94922 9.30005C2.94922 8.74776 3.39693 8.30005 3.94922 8.30005H6.44922C7.0015 8.30005 7.44922 8.74776 7.44922 9.30005V9.60005C7.44922 10.1523 7.0015 10.6 6.44922 10.6H3.94922C3.39693 10.6 2.94922 10.1523 2.94922 9.60005V9.30005ZM9.74922 9.30005C9.74922 8.74776 10.1969 8.30005 10.7492 8.30005H13.2492C13.8015 8.30005 14.2492 8.74776 14.2492 9.30005V9.60005C14.2492 10.1523 13.8015 10.6 13.2492 10.6H10.7492C10.1969 10.6 9.74922 10.1523 9.74922 9.60005V9.30005ZM16.5492 9.30005C16.5492 8.74776 16.9969 8.30005 17.5492 8.30005H20.0492C20.6015 8.30005 21.0492 8.74776 21.0492 9.30005V9.60005C21.0492 10.1523 20.6015 10.6 20.0492 10.6H17.5492C16.9969 10.6 16.5492 10.1523 16.5492 9.60005V9.30005ZM2.94922 19.65C2.94922 19.0978 3.39693 18.65 3.94922 18.65H6.44922C7.0015 18.65 7.44922 19.0978 7.44922 19.65V19.95C7.44922 20.5023 7.0015 20.95 6.44922 20.95H3.94922C3.39693 20.95 2.94922 20.5023 2.94922 19.95V19.65ZM9.74922 19.65C9.74922 19.0978 10.1969 18.65 10.7492 18.65H13.2492C13.8015 18.65 14.2492 19.0978 14.2492 19.65V19.95C14.2492 20.5023 13.8015 20.95 13.2492 20.95H10.7492C10.1969 20.95 9.74922 20.5023 9.74922 19.95V19.65ZM16.5492 19.65C16.5492 19.0978 16.9969 18.65 17.5492 18.65H20.0492C20.6015 18.65 21.0492 19.0978 21.0492 19.65V19.95C21.0492 20.5023 20.6015 20.95 20.0492 20.95H17.5492C16.9969 20.95 16.5492 20.5023 16.5492 19.95V19.65ZM18.7992 16.2C19.0754 16.2 19.2992 15.9762 19.2992 15.7V14.5317C19.2992 14.3391 19.523 14.2331 19.672 14.355V14.355C19.7698 14.435 19.914 14.4204 19.9936 14.3223L20.1758 14.098C20.3548 13.8778 20.3224 13.5544 20.1034 13.3741L19.4349 12.8236C19.0657 12.5195 18.5328 12.5195 18.1635 12.8236L17.4951 13.3741C17.276 13.5544 17.2437 13.8778 17.4226 14.098L17.6048 14.3223C17.6845 14.4204 17.8287 14.435 17.9265 14.355V14.355C18.0755 14.2331 18.2992 14.3391 18.2992 14.5317V15.7C18.2992 15.9762 18.5231 16.2 18.7992 16.2V16.2ZM11.9992 12.8C11.7231 12.8 11.4992 13.0239 11.4992 13.3V14.4436C11.4992 14.6381 11.2684 14.7402 11.1245 14.6094V14.6094C11.0293 14.5228 10.881 14.534 10.7999 14.6339L10.6141 14.8625C10.4399 15.0769 10.4714 15.3918 10.6847 15.5675L11.3635 16.1265C11.7328 16.4306 12.2657 16.4306 12.6349 16.1265L13.3137 15.5675C13.527 15.3918 13.5586 15.0769 13.3843 14.8625L13.1986 14.6339C13.1175 14.534 12.9691 14.5228 12.874 14.6094V14.6094C12.7301 14.7402 12.4992 14.6381 12.4992 14.4436V13.3C12.4992 13.0239 12.2754 12.8 11.9992 12.8V12.8ZM5.19922 16.2C5.47536 16.2 5.69922 15.9762 5.69922 15.7V14.5317C5.69922 14.3391 5.92295 14.2331 6.07197 14.355V14.355C6.16977 14.435 6.31395 14.4204 6.39363 14.3223L6.57585 14.098C6.75479 13.8778 6.72241 13.5544 6.50337 13.3741L5.83493 12.8236C5.46567 12.5195 4.93277 12.5195 4.56351 12.8236L3.89507 13.3741C3.67603 13.5544 3.64365 13.8778 3.82259 14.098L4.00481 14.3223C4.08448 14.4204 4.22867 14.435 4.32646 14.355V14.355C4.47548 14.2331 4.69922 14.3391 4.69922 14.5317V15.7C4.69922 15.9762 4.92308 16.2 5.19922 16.2V16.2Z" fill="#959595"/>
</g>
<defs>
<clipPath id="clip0_314_2738">
<rect width="24" height="24" fill="white"/>
</clipPath>
</defs>
</svg>
