<svg width="38" height="29" viewBox="0 0 38 29" fill="none" xmlns="http://www.w3.org/2000/svg">
<g clip-path="url(#clip0_100_2224)">
<path d="M22.6583 6.61077C21.8345 9.36131 21.0214 12.1161 20.1871 14.8624C19.6746 16.5484 19.6598 16.5441 17.9488 16.5441C16.4051 16.5441 14.8592 16.5377 13.3155 16.5463C12.676 16.5506 12.0217 16.486 11.9941 15.6817C11.9645 14.7957 12.6167 14.585 13.3642 14.5871C14.6983 14.5914 16.0324 14.5549 17.3664 14.6022C18.0504 14.6258 18.3257 14.3742 18.5184 13.7011C19.6937 9.58926 20.9219 5.49249 22.1331 1.39142C22.203 1.15271 22.2771 0.911846 22.3703 0.681738C22.5482 0.245179 22.8743 -0.0193372 23.3444 1.76494e-05C23.8251 0.021523 24.1364 0.335501 24.1956 0.804319C24.3523 2.00432 24.4836 3.20862 24.5937 4.41292C24.9008 7.80432 25.1909 11.1957 25.5064 14.8C26.1544 13.6043 26.1692 12.4409 26.4763 11.3678C26.6711 10.6839 26.7685 9.97421 26.9379 9.28174C27.0523 8.81722 27.2344 8.39572 27.8082 8.35271C28.3525 8.31184 28.6701 8.60647 28.8522 9.07744C29.4155 10.5398 30.0211 11.9893 30.4933 13.4839C30.7623 14.3377 31.1371 14.7183 32.0498 14.6344C33.1043 14.5377 34.1419 14.7656 35.0737 13.8516C35.764 13.1742 37.0536 13.5441 37.6042 14.3032C38.178 15.0925 38.123 16.3011 37.4856 16.9656C36.7741 17.7032 35.6666 17.8817 34.9085 17.185C34.2139 16.5463 33.4643 16.7463 32.7253 16.7376C29.2228 16.6989 29.7501 17.0581 28.6023 13.9333C28.507 13.6731 28.3842 13.4237 28.1555 12.8946C27.7087 14.828 27.3127 16.4989 26.9379 18.1721C26.688 19.2839 26.489 20.4065 26.2222 21.514C26.0824 22.0989 25.9299 22.7979 25.1337 22.7247C24.3418 22.6516 24.2232 22.0258 24.1596 21.3161C23.7742 17.0215 23.3465 12.7312 22.9505 8.43873C22.8954 7.84088 22.942 7.23443 22.942 6.63228C22.8467 6.62367 22.7515 6.61722 22.6562 6.60862L22.6583 6.61077Z" fill="#8E8E8E"/>
<path d="M35.3597 26.529H0.574219C1.30478 25.0688 1.99512 23.686 2.68968 22.3075C2.85909 21.972 3.18096 22.0946 3.44142 22.0946C9.72005 22.0882 15.9987 22.0946 22.2773 22.0796C22.7834 22.0796 23.0015 22.243 23.1709 22.7355C23.4737 23.6129 24.2403 23.9699 25.0746 24.015C25.9238 24.0602 26.756 23.7204 27.0482 22.8753C27.3172 22.1011 27.7661 22.071 28.3908 22.0839C29.7227 22.1097 31.0568 22.1247 32.3888 22.0753C32.9732 22.0537 33.2548 22.2623 33.4941 22.7871C34.0532 24.0064 34.6842 25.1914 35.3576 26.529H35.3597ZM17.9405 25.5011C18.9908 25.5011 20.039 25.5097 21.0893 25.4946C21.2948 25.4925 21.606 25.6301 21.6336 25.2107C21.6717 24.5785 20.8119 23.6322 20.1703 23.6301C18.8765 23.6258 17.572 23.7183 16.2888 23.6C15.2914 23.5075 14.8425 23.9398 14.4825 24.7763C14.2496 25.3161 14.2199 25.5355 14.8975 25.5118C15.9119 25.4753 16.9262 25.5032 17.9405 25.5011Z" fill="#333333"/>
<path d="M13.0354 21.0365C10.0877 21.0365 7.14007 21.0193 4.1924 21.0494C3.54442 21.0559 3.29455 20.9376 3.3009 20.1914C3.3369 15.4666 3.33478 10.7419 3.30725 6.01717C3.3009 5.02362 3.73077 4.69244 4.64345 4.69459C9.45036 4.70964 14.2594 4.70964 19.0663 4.69459C19.6719 4.69459 19.8159 4.78061 19.655 5.46663C19.4093 6.51825 19.0091 6.92255 17.8508 6.89244C13.9926 6.79352 10.1322 6.87093 6.27187 6.83868C5.59636 6.83222 5.38883 6.99997 5.39519 7.7161C5.43119 11.3656 5.43754 15.0172 5.39307 18.6688C5.38248 19.4731 5.66624 19.5785 6.35233 19.5742C11.5108 19.5462 16.6692 19.5591 21.8276 19.5613C22.2617 19.5613 22.6852 19.4258 22.7742 20.1742C22.8652 20.9333 22.6535 21.058 21.9822 21.0494C19.0006 21.0193 16.017 21.0365 13.0333 21.0365H13.0354Z" fill="#333333"/>
<path d="M17.9356 27.5549C23.5853 27.5549 29.2371 27.5485 34.8869 27.57C35.2426 27.57 35.8927 27.2883 35.9139 27.8926C35.9372 28.5055 35.5666 29.0582 34.781 28.9936C34.6073 28.9786 34.4295 28.9936 34.2537 28.9936C23.3736 28.9936 12.4934 28.9936 1.61542 28.9936C1.36978 28.9936 1.12202 29.013 0.878498 28.9872C0.270752 28.927 0.0166423 28.4237 -0.000298332 27.9463C-0.0235917 27.3248 0.558743 27.57 0.878498 27.5678C6.5642 27.5528 12.2499 27.5571 17.9356 27.5571V27.5549Z" fill="#333333"/>
<path d="M32.6047 9.21939C32.6047 10.3248 32.6217 11.4323 32.5941 12.5377C32.5878 12.8108 32.808 13.2151 32.34 13.342C31.889 13.4624 31.7365 13.1484 31.6031 12.7936C30.989 11.1678 30.2457 9.56993 30.5147 7.75272C30.6333 6.95702 30.2817 6.79788 29.5808 6.8452C28.6745 6.90541 27.7618 6.82154 26.8534 6.86885C25.4431 6.93982 26.1143 5.78283 25.9407 5.20004C25.7099 4.42799 26.4426 4.73122 26.7602 4.72477C28.2277 4.69036 29.6994 4.70326 31.1669 4.71186C32.4141 4.71832 32.5984 4.92047 32.6026 6.22584C32.6047 7.22584 32.6026 8.22369 32.6026 9.22369L32.6047 9.21939Z" fill="#333333"/>
<path d="M27.7259 21.0366C27.5374 19.5828 28.304 19.4366 29.312 19.5527C30.0489 19.6387 30.7138 19.6473 30.5296 18.5054C30.4067 17.7484 31.0653 18.0732 31.4105 18.0108C32.2999 17.8516 32.6874 18.1183 32.6323 19.1656C32.5349 21.0323 32.6069 21.0344 30.7477 21.0344H27.7259V21.0366Z" fill="#333333"/>
<path d="M17.9399 25.501C16.9256 25.501 15.9092 25.4752 14.897 25.5096C14.2193 25.5332 14.249 25.3139 14.4819 24.7741C14.8419 23.9375 15.293 23.5053 16.2882 23.5978C17.5715 23.7182 18.8738 23.6236 20.1697 23.6279C20.8114 23.63 21.6711 24.5762 21.633 25.2085C21.6076 25.6257 21.2963 25.4881 21.0888 25.4924C20.0385 25.5074 18.9902 25.4988 17.9399 25.4988V25.501Z" fill="#EEEDEC"/>
</g>
<defs>
<clipPath id="clip0_100_2224">
<rect width="38" height="29" fill="white"/>
</clipPath>
</defs>
</svg>
