<svg width="30" height="30" viewBox="0 0 30 30" fill="none" xmlns="http://www.w3.org/2000/svg">
<path d="M18.9812 16.1152C17.0397 15.5141 15.2537 15.757 13.6461 17.0145C11.8182 17.7273 11.7196 19.2304 11.4785 20.7744C12.2727 26.8182 11.9888 27.6146 16.4037 27.6175H16.0396C11.3683 27.6175 6.69693 27.5994 2.02637 27.6307C0.899379 27.6389 -0.0023746 26.7191 4.69753e-06 25.5201C0.0158667 17.7227 0.00793569 9.9252 0.00872879 2.12693C0.00872879 0.837374 0.803414 0.00402118 2.04541 0.00237424C5.08377 -0.00174312 8.12213 -0.00091965 11.1605 0.00813854C11.2898 0.00813854 11.4524 0.0748397 11.5436 0.168715C13.9776 2.68277 16.4061 5.20424 18.829 7.72983C18.9162 7.82041 18.9931 7.97111 18.9939 8.0938C19.0035 10.7034 19.0011 13.313 19.0003 15.9225C19.0003 15.9728 18.99 16.023 18.9812 16.1152ZM16.9644 7.87805C15.1149 5.95772 13.2598 4.03244 11.4246 2.12693V7.87805H16.9644Z" fill="#333333"/>
<path d="M26.5799 28.3282C27.5249 28.3282 28.2818 27.5801 28.2818 26.6564L28.2904 17.4614C28.2904 16.5377 27.5249 15.7896 26.5799 15.7896H12.8957C11.9506 15.7896 11.1851 16.5377 11.1851 17.4614V26.6564C11.1851 27.5801 11.9506 28.3282 12.8957 28.3282H9.47461C9.47461 29.2519 10.2401 30.0001 11.1851 30.0001H28.2904C29.2355 30.0001 30.0009 29.2519 30.0009 28.3282H26.5799ZM12.8957 17.4614H26.5799V26.6564H12.8957V17.4614ZM19.7378 29.1642C19.2674 29.1642 18.8825 28.788 18.8825 28.3282C18.8825 27.8685 19.2674 27.4923 19.7378 27.4923C20.2082 27.4923 20.593 27.8685 20.593 28.3282C20.593 28.788 20.2082 29.1642 19.7378 29.1642Z" fill="#8E8E8E"/>
</svg>
