<svg width="46" height="42" viewBox="0 0 46 42" fill="none" xmlns="http://www.w3.org/2000/svg">
<path fill-rule="evenodd" clip-rule="evenodd" d="M0.647209 28.18L1.91723 23.8039C1.91723 23.8039 -0.835303 18.8119 0.255798 13.1554C0.255798 13.1554 1.41455 7.14825 6.32861 3.39701C6.32861 3.39701 11.2427 -0.354234 17.4535 0.0272406C17.4535 0.0272406 23.6643 0.408714 28.0647 4.73205C28.0647 4.73205 32.465 9.05539 32.8532 15.1576C32.8532 15.1576 33.2415 21.2598 29.4235 26.0879C29.4235 26.0879 25.6055 30.916 19.4913 32.0545C19.4913 32.0545 13.7341 33.1265 8.65332 30.4221L4.19929 31.67C4.19929 31.67 3.44229 31.8791 2.68739 31.6852C2.68739 31.6852 1.93249 31.4913 1.38074 30.9492C1.38074 30.9492 0.829009 30.4072 0.631689 29.6655C0.631689 29.6655 0.434369 28.9238 0.645555 28.1857L0.647209 28.18ZM8.41415 27.1303L4.01266 28.3634L5.2677 24.0389C5.39163 23.6118 5.33114 23.1535 5.10046 22.7716C5.10046 22.7716 2.55863 18.5642 3.48592 13.7569C3.48592 13.7569 4.41322 8.94965 8.34569 5.94772C8.34569 5.94772 12.2782 2.94579 17.2484 3.25107C17.2484 3.25107 22.2186 3.55634 25.74 7.01609C25.74 7.01609 29.2613 10.4758 29.572 15.3591C29.572 15.3591 29.8827 20.2424 26.8273 24.1061C26.8273 24.1061 23.772 27.9698 18.8791 28.8809C18.8791 28.8809 13.9863 29.792 9.70393 27.2946C9.31528 27.0679 8.84879 27.0085 8.41415 27.1303Z" fill="#31AF99"/>
<path d="M38.3923 12.2454C34.752 9.97117 30.444 9.74897 30.444 9.74897C30.4153 9.74749 30.3865 9.74675 30.3578 9.74675C30.2862 9.74675 30.2148 9.75134 30.1438 9.76049C29.3581 9.86184 28.7578 10.4996 28.7162 11.2771C28.7147 11.3053 28.714 11.3336 28.714 11.3618C28.714 11.4321 28.7186 11.5023 28.728 11.572C28.8311 12.344 29.4802 12.9338 30.2716 12.9747C33.7169 13.1524 36.6283 14.9712 36.6283 14.9712C39.5397 16.7899 41.165 19.78 41.165 19.78C42.7903 22.77 42.7096 26.1588 42.7096 26.1588C42.629 29.5476 40.8632 32.4597 40.8632 32.4597C40.6314 32.8419 40.5704 33.3012 40.6946 33.7291L41.9497 38.0537L37.5482 36.8205C37.1289 36.7031 36.6793 36.7541 36.2984 36.9623L36.2572 36.9856L36.2543 36.9873C33.7172 38.469 30.7785 38.7413 30.7785 38.7413C27.8382 39.0137 25.0624 38.0229 25.0624 38.0229C22.2866 37.0321 20.2099 34.9689 20.2099 34.9689C18.1332 32.9058 17.1557 30.1676 17.1557 30.1676C17.0114 29.7634 16.7096 29.4321 16.3167 29.2465C16.0945 29.1416 15.8511 29.0871 15.6046 29.0871L15.573 29.0874C15.3984 29.0907 15.2254 29.1213 15.0605 29.1781C14.6491 29.3199 14.3119 29.6164 14.123 30.0025C14.0162 30.2208 13.9608 30.4599 13.9608 30.7022L13.9611 30.7332C13.9644 30.9048 13.9956 31.0747 14.0534 31.2367C15.2756 34.6605 17.8723 37.2402 17.8723 37.2402C20.469 39.82 23.9398 41.0589 23.9398 41.0589C27.4107 42.2978 31.0872 41.9571 31.0872 41.9571C34.4019 41.65 37.3081 40.1122 37.3081 40.1122L41.7689 41.3619C42.52 41.5693 43.2749 41.3755 43.2749 41.3755C44.0298 41.1816 44.5816 40.6395 44.5816 40.6395C45.1333 40.0974 45.3306 39.3557 45.3306 39.3557C45.528 38.614 45.3151 37.8703 45.3151 37.8703L44.0451 33.4943C45.904 30.1141 45.9964 26.2343 45.9964 26.2343C46.0972 21.997 44.0649 18.2583 44.0649 18.2583C42.0327 14.5196 38.3923 12.2454 38.3923 12.2454Z" fill="#31AF99"/>
</svg>
