<svg width="334" height="90" viewBox="0 0 334 90" fill="none" xmlns="http://www.w3.org/2000/svg">
<path d="M113.3 56.7C110.1 56.7 108.4 55.2 108.2 52C108.2 49 110.3 47.1 114.3 46.4C117.3 45.8 120 45 122.4 44V47.7C122.3 53.3 118.9 56.7 113.3 56.7ZM115.7 31.6C119.9 31.6 122 32.7 122.2 35C122.2 37.2 120 38.5 115.7 39C105.5 40 98.5 42.6 98.3 52.2C98.3 61.1 105 65.6 114.6 64.8C125.5 64 132.2 59.1 132.2 48V34.4C132 27 126.3 23.3 115.3 23.3C106 23.3 100.8 26.9 99.6 34.4H109.7C110.1 32.5 112.1 31.6 115.7 31.6ZM154.8 32.4C160.3 32.4 163.1 36.2 163.3 44C163.3 52.1 160.4 56.2 154.6 56.2C148.8 56.2 146.1 52.1 146.2 44C146.5 36.2 149.3 32.4 154.8 32.4ZM168.3 12.4H163.3V29.5C160.7 25.3 156.8 23.3 151.8 23.3C141.1 23.7 135.8 30.7 135.8 44.4C135.8 57.8 142 64.5 154.5 64.8C167 64.9 173.3 58.9 173.3 46.8V17.5C173.3 14.8 171.1 12.4 168.3 12.4ZM194.2 32.2C198.7 32.2 201 34.3 201.2 38.4V64.1H211.4V38.6C211.5 34.4 213.8 32.4 218.2 32.4C222.7 32.4 225 34.5 225.2 38.6V59.3C225.2 62.5 226.9 64.1 230.2 64.3H235.4V40.6C235.5 29.1 229.8 23.4 218.3 23.4C213.1 23.4 209.2 24.5 206.3 26.7C203.4 24.4 199.5 23.3 194.3 23.3C182.8 23.3 177 29 177 40.5V64.1H187.3V38.4C187.5 34.3 189.7 32.2 194.2 32.2ZM240.6 12.4V20.3H250.7V17.3C250.8 14 249.2 12.4 245.8 12.4H240.6ZM240.6 23.9V64.1H250.7V28.8C250.7 25.5 249.1 23.9 245.8 23.9H240.6ZM289.9 64.1V40.5C290 29 284.4 23.3 272.9 23.3C261.4 23.3 255.6 29 255.6 40.5V64.1H265.9V38.4C266 34.2 268.3 32.2 272.7 32.2C277.1 32.2 279.5 34.3 279.7 38.4V59.1C279.7 62.3 281.4 63.9 284.7 64.1H289.9Z" fill="#CFE3FF"/>
<path d="M324.4 20.4C322.3 20.4 320.9 21.3 320 23.1L312.2 36.2L305.3 24H293.7L306 43.5L292.9 64.1H305.3L312.5 51.3L319.6 64.1H331.8L318.4 43.6L333.6 20.3H324.4V20.4Z" fill="#0069FF"/>
<path d="M83.5 56.9L81.5 63.2C81 64.8 79.3 65.6 77.7 65.1L73.3 63.7C72 63.3 70.6 63.8 69.9 64.9C69.2 66 68.4 67 67.6 68C66.7 69 66.7 70.5 67.5 71.6L70.2 75.3C71.2 76.6 70.9 78.5 69.5 79.5L64.2 83.4C62.9 84.4 61 84.1 60 82.7L57.4 79C56.6 77.9 55.2 77.5 53.9 78C52.7 78.5 51.5 78.8 50.3 79.2C49 79.5 48.1 80.7 48.1 82.1V86.7C48.1 88.4 46.8 89.7 45.1 89.7H38.5C36.8 89.7 35.5 88.4 35.5 86.7V82C35.5 80.7 34.6 79.5 33.3 79.1C32.1 78.8 30.9 78.4 29.7 77.9C28.4 77.4 27 77.8 26.2 78.9L23.5 82.6C22.5 83.9 20.7 84.2 19.3 83.3L14 79.5C12.7 78.5 12.4 76.7 13.3 75.3L16 71.6C16.8 70.5 16.8 69 15.9 68C15.1 67 14.4 66 13.7 64.9C13 63.8 11.5 63.3 10.3 63.7L6 65.1C4.4 65.6 2.7 64.8 2.2 63.2L0.200002 56.9C-0.299998 55.3 0.500002 53.6 2.1 53.1L6.5 51.7C7.8 51.3 8.6 50.1 8.6 48.7C8.6 48.1 8.5 47.4 8.5 46.8C8.5 46.2 8.5 45.5 8.6 44.9C8.7 43.5 7.8 42.3 6.5 41.9L2.1 40.5C0.500002 40 -0.299998 38.3 0.200002 36.7L2.2 30.4C2.7 28.8 4.4 28 6 28.5L10.4 29.9C11.7 30.3 13.1 29.8 13.8 28.7C14.5 27.6 15.2 26.6 16 25.6C16.9 24.6 16.9 23.1 16.1 22L13.4 18.3C12.4 17 12.7 15.1 14.1 14.1L19.4 10.2C20.7 9.2 22.6 9.49999 23.6 10.9L26.3 14.6C27.1 15.7 28.5 16.1 29.8 15.6C31 15.1 32.2 14.7 33.4 14.4C34.7 14.1 35.6 12.9 35.6 11.5V6.89999C35.6 5.19999 36.9 3.89999 38.6 3.89999H43.8C40.9 7.59999 39.3 12.3 39.3 17.4C39.3 19.8 39.7 22.1 40.4 24.2C28.6 25.3 19.3 35 19.3 46.9C19.3 59.3 29.4 69.4 41.8 69.4C54.2 69.4 64.3 59.3 64.3 46.9C64.3 44.4 63.9 42.1 63.2 39.9C70.6 39.4 76.9 35.2 80.5 29.2C80.9 29.6 81.3 30 81.5 30.6L83.5 36.9C84 38.5 83.2 40.2 81.6 40.7L77.2 42C75.9 42.4 75.1 43.6 75.1 45C75.1 45.6 75.2 46.2 75.2 46.9C75.2 47.5 75.2 48.2 75.1 48.8C75 50.2 75.9 51.4 77.2 51.8L81.6 53.2C83.1 53.7 84 55.4 83.5 56.9Z" fill="#CFE3FF"/>
<path d="M73.7 29.4C80.2 22.9 80.2 12.3 73.7 5.8C67.2 -0.699997 56.6 -0.699997 50.1 5.8C43.6 12.3 43.6 22.9 50.1 29.4C56.6 35.9 67.2 35.9 73.7 29.4Z" fill="#0069FF"/>
<path d="M68.6999 13.7C68.6999 17.3 65.8 20.2 62.2 20.2C58.6 20.2 55.7 17.3 55.7 13.7C55.7 10.1 58.6 7.2 62.2 7.2C65.8 7.2 68.6999 10.1 68.6999 13.7Z" fill="#CFE3FF"/>
<path d="M62.2 31.4C66.2 31.4 69.8 29.8 72.4 27.2C70.8 23.1 66.8 20.2 62.2 20.2C57.6 20.2 53.6 23.1 52 27.2C54.7 29.8 58.3 31.4 62.2 31.4Z" fill="#13ECFC"/>
</svg>
